<svg width="320" height="48" viewBox="0 0 320 48" fill="none" xmlns="http://www.w3.org/2000/svg">
<g clip-path="url(#clip0_3855_999)">
<path fill-rule="evenodd" clip-rule="evenodd" d="M153.362 12.0227C150.955 12.0227 149.751 12.0227 148.465 12.4225C147.045 12.9368 145.926 14.0561 145.412 15.4772C145.002 16.7765 145.002 17.9788 145.002 20.3862V27.6499C145.002 30.0702 145.002 31.2623 145.402 32.5588C145.916 33.9791 147.035 35.0983 148.454 35.6126C149.753 36.0245 150.955 36.0245 153.362 36.0245H160.633C163.042 36.0245 164.243 36.0245 165.539 35.6126C166.959 35.0983 168.077 33.9791 168.592 32.5588C169.002 31.2596 169.002 30.0573 169.002 27.6499V20.3963C169.002 17.9862 169.002 16.7839 168.592 15.4874C168.077 14.0671 166.958 12.9479 165.539 12.4336C164.231 12.0217 163.042 12.0217 160.621 12.0217H153.361C153.361 12.0217 153.362 12.0227 153.362 12.0227Z" fill="#00D633"/>
<path d="M157.973 22.8574C160.502 23.3993 161.658 24.447 161.658 26.2172C161.658 28.4363 159.851 30.0744 157.03 30.2478L156.755 31.5604C156.728 31.6887 156.615 31.7806 156.484 31.7806H154.313C154.134 31.7806 154.003 31.6137 154.044 31.4396L154.392 29.9717C152.994 29.5739 151.869 28.8 151.213 27.8447C151.13 27.7245 151.158 27.5601 151.273 27.4706L152.79 26.2908C152.915 26.1936 153.094 26.2221 153.186 26.3507C153.99 27.4694 155.223 28.1319 156.708 28.1319C158.045 28.1319 159.057 27.4816 159.057 26.5423C159.057 25.8198 158.551 25.4947 156.853 25.1334C153.927 24.5193 152.771 23.4355 152.771 21.6653C152.771 19.6114 154.497 18.0599 157.101 17.8584L157.385 16.5027C157.412 16.3744 157.525 16.2825 157.656 16.2825H159.797C159.974 16.2825 160.105 16.4455 160.068 16.6182L159.739 18.1372C160.859 18.4821 161.771 19.0987 162.339 19.8597C162.427 19.9776 162.405 20.1447 162.291 20.238L160.907 21.3728C160.787 21.4714 160.611 21.4499 160.513 21.3289C159.81 20.459 158.703 19.9673 157.503 19.9673C156.167 19.9673 155.336 20.5454 155.336 21.3763C155.336 22.0627 155.986 22.4239 157.973 22.8574Z" fill="white"/>
<path d="M182.864 18.1684C182.824 18.0605 182.721 17.989 182.605 17.989H180.353C180.237 17.989 180.134 18.0605 180.093 18.1685L175.754 29.7083C175.686 29.8894 175.82 30.0828 176.013 30.0828H177.719C177.835 30.0828 177.939 30.0108 177.979 29.9022L178.906 27.4047H184.01L184.944 29.9029C184.985 30.0111 185.088 30.0828 185.204 30.0828H186.953C187.146 30.0828 187.28 29.8893 187.212 29.7081L182.864 18.1684ZM179.647 25.4087L181.441 20.5577L183.26 25.4087H179.647Z" fill="white"/>
<path d="M198.186 28.2607C198.03 28.274 197.881 28.2806 197.669 28.2806C196.962 28.2806 196.524 28.188 196.524 27.4132V23.0759H198.075C198.228 23.0759 198.352 22.9518 198.352 22.7988V21.5086C198.352 21.3556 198.228 21.2315 198.075 21.2315H196.524V18.9483C196.524 18.7953 196.4 18.6713 196.247 18.6713H194.645C194.492 18.6713 194.368 18.7953 194.368 18.9483V21.2315H190.873V20.8441C190.873 19.9008 191.286 19.6735 192.052 19.6735C192.183 19.6735 192.279 19.6735 192.374 19.6758C192.53 19.6796 192.659 19.5549 192.659 19.3989V18.0989C192.659 17.951 192.542 17.8289 192.395 17.8221C192.182 17.8123 192.023 17.8123 191.783 17.8123C189.702 17.8123 188.683 18.8481 188.683 20.7009V21.2315H187.748C187.595 21.2315 187.471 21.3556 187.471 21.5086V22.7988C187.471 22.9518 187.595 23.0759 187.748 23.0759H188.683V29.8059C188.683 29.9589 188.807 30.0829 188.96 30.0829H190.596C190.749 30.0829 190.873 29.9589 190.873 29.8059V23.0759H194.368V27.8174C194.368 29.6282 195.294 30.1839 197.029 30.1839C197.481 30.1839 197.9 30.1506 198.253 30.0974C198.388 30.0771 198.486 29.9599 198.486 29.8236V28.5367C198.486 28.3745 198.348 28.247 198.186 28.2607Z" fill="white"/>
<path d="M203.683 21.063C201.198 21.063 199.421 23.059 199.421 25.6613C199.421 28.3985 201.198 30.2681 203.767 30.2681C205.43 30.2681 206.811 29.456 207.494 28.0423C207.565 27.8963 207.491 27.721 207.338 27.6652L206.012 27.179C205.876 27.1293 205.724 27.1916 205.666 27.3235C205.34 28.0536 204.637 28.4406 203.775 28.4406C202.546 28.4406 201.678 27.5731 201.518 26.1414H207.389C207.542 26.1414 207.666 26.0173 207.666 25.8643V25.4592C207.666 23.0085 206.277 21.063 203.683 21.063ZM201.611 24.5833C201.906 23.4464 202.672 22.8569 203.666 22.8569C204.879 22.8569 205.46 23.6569 205.477 24.5833H201.611Z" fill="white"/>
<path d="M214.105 21.1916C214.011 21.1852 213.907 21.1809 213.789 21.1809C212.677 21.1809 211.784 21.7116 211.397 22.5116V21.5085C211.397 21.3555 211.273 21.2315 211.12 21.2315H209.484C209.331 21.2315 209.207 21.3555 209.207 21.5085V29.8058C209.207 29.9588 209.331 30.0829 209.484 30.0829H211.12C211.273 30.0829 211.397 29.9588 211.397 29.8058V25.5099C211.397 24.1202 212.357 23.3286 213.612 23.3286C213.781 23.3286 213.92 23.3344 214.06 23.3462C214.222 23.3598 214.361 23.2328 214.361 23.0703V21.4679C214.361 21.3228 214.25 21.2014 214.105 21.1916Z" fill="white"/>
<path d="M220.492 21.063C219.364 21.063 218.522 21.5094 217.983 22.1578V21.5085C217.983 21.3555 217.859 21.2314 217.706 21.2314H216.07C215.917 21.2314 215.793 21.3555 215.793 21.5085V32.8208C215.793 32.9738 215.917 33.0979 216.07 33.0979H217.706C217.859 33.0979 217.983 32.9738 217.983 32.8208V29.1648C218.522 29.8217 219.364 30.2681 220.492 30.2681C222.952 30.2681 224.366 28.1795 224.366 25.6613C224.366 23.1516 222.952 21.063 220.492 21.063ZM220.012 28.3732C218.825 28.3732 217.932 27.4889 217.932 25.9224V25.4171C217.932 23.8254 218.825 22.9579 220.012 22.9579C221.41 22.9579 222.16 24.0612 222.16 25.6613C222.16 27.2699 221.41 28.3732 220.012 28.3732Z" fill="white"/>
<path d="M233.344 28.4293C233.003 28.4141 232.864 28.2396 232.864 27.8426V24.1285C232.864 22.0821 231.55 21.063 229.369 21.063C227.483 21.063 226.207 22.0813 225.699 23.4149C225.637 23.5753 225.733 23.7527 225.901 23.7875L227.422 24.1029C227.556 24.1307 227.691 24.0565 227.738 23.9279C227.983 23.2532 228.455 22.9158 229.285 22.9158C230.312 22.9158 230.725 23.4127 230.725 24.2128V24.3559L228.4 24.8191C226.657 25.156 225.318 25.8972 225.318 27.6236C225.318 29.1985 226.606 30.2344 228.316 30.2344C229.47 30.2344 230.379 29.8723 230.944 29.2491C231.269 29.9395 232.036 30.2411 233.363 30.1115C233.505 30.0976 233.613 29.9777 233.613 29.8354V28.7059C233.613 28.5561 233.494 28.436 233.344 28.4293ZM230.725 26.9499C230.725 27.9858 229.739 28.5332 228.703 28.5332C227.962 28.5332 227.482 28.1626 227.482 27.5142C227.482 26.7646 228.089 26.5035 228.906 26.3351L230.725 25.9561V26.9499Z" fill="white"/>
<path d="M242.115 21.2314H240.482C240.363 21.2314 240.258 21.3071 240.22 21.4195L238.245 27.2447L236.221 21.4176C236.183 21.3061 236.078 21.2314 235.96 21.2314H234.274C234.081 21.2314 233.947 21.4248 234.015 21.6059L237.075 29.746L236.763 30.5123C236.493 31.1861 236.165 31.363 235.517 31.363C235.37 31.363 235.258 31.3576 235.141 31.3485C234.98 31.3358 234.843 31.4632 234.843 31.6246V32.8744C234.843 33.017 234.951 33.1368 235.093 33.1502C235.259 33.1658 235.42 33.1737 235.719 33.1737C237.614 33.1737 238.405 32.2051 238.944 30.7482L242.375 21.6058C242.443 21.4247 242.309 21.2314 242.115 21.2314Z" fill="white"/>
</g>
<path d="M81.5762 25.184V30H80.0402V18.512H84.4242C86.8562 18.512 88.4082 19.648 88.4082 21.84C88.4082 24 86.8562 25.184 84.4242 25.184H81.5762ZM81.5762 23.856H84.3442C85.9762 23.856 86.8882 23.136 86.8882 21.84C86.8882 20.544 85.9762 19.84 84.3442 19.84H81.5762V23.856ZM91.6154 30.144C90.0954 30.144 88.8634 29.248 88.8634 27.744C88.8634 26.08 90.1594 25.392 92.0314 25.008L94.0634 24.592V24.24C94.0634 23.28 93.5354 22.736 92.4154 22.736C91.3594 22.736 90.7354 23.232 90.4794 24.16L89.1194 23.808C89.5194 22.448 90.7514 21.472 92.4634 21.472C94.3354 21.472 95.4874 22.384 95.4874 24.176V28.256C95.4874 28.8 95.8234 28.976 96.3834 28.848V30C95.1034 30.16 94.3674 29.856 94.1914 29.056C93.6794 29.712 92.7514 30.144 91.6154 30.144ZM94.0634 27.152V25.712L92.4314 26.064C91.1514 26.32 90.2874 26.672 90.2874 27.68C90.2874 28.496 90.8794 28.976 91.7914 28.976C93.0234 28.976 94.0634 28.224 94.0634 27.152ZM100.791 30.912C100.311 32.176 99.6555 32.976 98.1995 32.976C97.8475 32.976 97.6715 32.96 97.4155 32.912V31.664C97.6875 31.728 97.8635 31.744 98.1035 31.744C98.7275 31.744 99.0635 31.52 99.3995 30.688L99.7995 29.696L96.6955 21.632H98.2155L100.567 28.032L102.887 21.632H104.391L100.791 30.912ZM112.836 21.632H114.052L115.78 27.872L117.524 21.632H118.964L116.42 30H115.156L113.412 23.792L111.668 30H110.404L107.86 21.632H109.348L111.108 27.856L112.836 21.632ZM120.927 20.24C120.399 20.24 120.031 19.872 120.031 19.328C120.031 18.784 120.399 18.416 120.927 18.416C121.455 18.416 121.823 18.784 121.823 19.328C121.823 19.872 121.455 20.24 120.927 20.24ZM121.647 21.632V30H120.207V21.632H121.647ZM124.115 28V22.864H122.819V21.632H124.115V19.184H125.539V21.632H127.443V22.864H125.539V27.776C125.539 28.656 125.971 28.816 126.707 28.816C127.043 28.816 127.283 28.8 127.619 28.72V29.952C127.251 30.032 126.835 30.08 126.355 30.08C124.931 30.08 124.115 29.6 124.115 28ZM129.169 30V18.512H130.609V22.768C131.089 22.08 131.921 21.472 133.105 21.472C134.881 21.472 135.889 22.704 135.889 24.48V30H134.449V24.864C134.449 23.696 133.953 22.816 132.705 22.816C131.665 22.816 130.609 23.616 130.609 25.008V30H129.169Z" fill="white"/>
<defs>
<clipPath id="clip0_3855_999">
<rect width="97.3944" height="24" fill="white" transform="translate(145 12)"/>
</clipPath>
</defs>
</svg>
