<svg width="320" height="48" viewBox="0 0 320 48" fill="none" xmlns="http://www.w3.org/2000/svg">
<path d="M61.5539 23.756C61.5539 26.476 63.0579 28.316 65.1859 28.316C66.6739 28.316 67.7459 27.452 68.1619 25.996L69.6179 26.476C68.9459 28.46 67.3779 29.676 65.1859 29.676C62.2099 29.676 60.0179 27.26 60.0179 23.756C60.0179 20.252 62.2099 17.836 65.1859 17.836C67.3779 17.836 68.9459 19.052 69.6179 21.036L68.1619 21.516C67.7459 20.06 66.6739 19.196 65.1859 19.196C63.0579 19.196 61.5539 21.036 61.5539 23.756ZM78.2127 25.324C78.2127 27.916 76.6127 29.676 74.3247 29.676C72.0367 29.676 70.4367 27.916 70.4367 25.324C70.4367 22.732 72.0367 20.972 74.3247 20.972C76.6127 20.972 78.2127 22.732 78.2127 25.324ZM71.8927 25.324C71.8927 27.228 72.8527 28.444 74.3247 28.444C75.7967 28.444 76.7567 27.228 76.7567 25.324C76.7567 23.404 75.7967 22.188 74.3247 22.188C72.8527 22.188 71.8927 23.404 71.8927 25.324ZM79.884 29.5V21.132H81.324V22.268C81.804 21.58 82.636 20.972 83.82 20.972C85.596 20.972 86.604 22.204 86.604 23.98V29.5H85.164V24.364C85.164 23.196 84.668 22.316 83.42 22.316C82.38 22.316 81.324 23.116 81.324 24.508V29.5H79.884ZM88.9792 27.5V22.364H87.6832V21.132H88.9792V18.684H90.4032V21.132H92.3072V22.364H90.4032V27.276C90.4032 28.156 90.8352 28.316 91.5712 28.316C91.9072 28.316 92.1472 28.3 92.4832 28.22V29.452C92.1152 29.532 91.6992 29.58 91.2192 29.58C89.7952 29.58 88.9792 29.1 88.9792 27.5ZM94.7527 19.74C94.2247 19.74 93.8567 19.372 93.8567 18.828C93.8567 18.284 94.2247 17.916 94.7527 17.916C95.2807 17.916 95.6487 18.284 95.6487 18.828C95.6487 19.372 95.2807 19.74 94.7527 19.74ZM95.4727 21.132V29.5H94.0327V21.132H95.4727ZM97.7165 29.5V21.132H99.1565V22.268C99.6365 21.58 100.468 20.972 101.652 20.972C103.428 20.972 104.436 22.204 104.436 23.98V29.5H102.996V24.364C102.996 23.196 102.5 22.316 101.252 22.316C100.212 22.316 99.1565 23.116 99.1565 24.508V29.5H97.7165ZM113.228 21.132V29.5H111.788V28.348C111.308 29.052 110.492 29.676 109.308 29.676C107.516 29.676 106.508 28.444 106.508 26.668V21.132H107.948V26.364C107.948 27.548 108.46 28.348 109.692 28.348C110.732 28.348 111.788 27.564 111.788 26.172V21.132H113.228ZM118.803 29.676C116.483 29.676 114.883 27.9 114.883 25.324C114.883 22.828 116.467 20.972 118.739 20.972C121.075 20.972 122.307 22.748 122.307 25.068V25.548H116.259C116.339 27.308 117.347 28.428 118.803 28.428C119.923 28.428 120.723 27.82 120.979 26.828L122.243 27.276C121.731 28.764 120.467 29.676 118.803 29.676ZM118.723 22.204C117.507 22.204 116.595 23.02 116.339 24.444H120.851C120.819 23.26 120.179 22.204 118.723 22.204ZM131.139 21.132H132.355L134.083 27.372L135.827 21.132H137.267L134.723 29.5H133.459L131.715 23.292L129.971 29.5H128.707L126.163 21.132H127.651L129.411 27.356L131.139 21.132ZM139.23 19.74C138.702 19.74 138.334 19.372 138.334 18.828C138.334 18.284 138.702 17.916 139.23 17.916C139.758 17.916 140.126 18.284 140.126 18.828C140.126 19.372 139.758 19.74 139.23 19.74ZM139.95 21.132V29.5H138.51V21.132H139.95ZM142.418 27.5V22.364H141.122V21.132H142.418V18.684H143.842V21.132H145.746V22.364H143.842V27.276C143.842 28.156 144.274 28.316 145.01 28.316C145.346 28.316 145.586 28.3 145.922 28.22V29.452C145.554 29.532 145.138 29.58 144.658 29.58C143.234 29.58 142.418 29.1 142.418 27.5ZM147.471 29.5V18.012H148.911V22.268C149.391 21.58 150.223 20.972 151.407 20.972C153.183 20.972 154.191 22.204 154.191 23.98V29.5H152.751V24.364C152.751 23.196 152.255 22.316 151.007 22.316C149.967 22.316 148.911 23.116 148.911 24.508V29.5H147.471Z" fill="black"/>
<g clip-path="url(#clip0_22_128)">
<g clip-path="url(#clip1_22_128)">
<path fill-rule="evenodd" clip-rule="evenodd" d="M186.894 15.4874C186.38 14.0671 185.261 12.9479 183.842 12.4336C182.534 12.0217 181.345 12.0217 178.923 12.0217H171.663L171.664 12.0227C169.258 12.0227 168.054 12.0227 166.767 12.4225C165.348 12.9369 164.229 14.0561 163.714 15.4772C163.304 16.7765 163.304 17.9788 163.304 20.3862V27.6499C163.304 30.0702 163.304 31.2623 163.704 32.5588C164.219 33.9791 165.338 35.0983 166.757 35.6126C168.055 36.0245 169.258 36.0245 171.664 36.0245H178.935C181.345 36.0245 182.546 36.0245 183.842 35.6126C185.262 35.0983 186.38 33.9791 186.894 32.5588C187.304 31.2596 187.304 30.0573 187.304 27.6499V20.3963C187.304 17.9862 187.304 16.7839 186.894 15.4874ZM180.593 20.2379L179.209 21.3727C179.089 21.4713 178.914 21.4498 178.816 21.3288C178.113 20.4589 177.005 19.9673 175.806 19.9673C174.469 19.9673 173.638 20.5453 173.638 21.3762C173.638 22.0626 174.289 22.4239 176.275 22.8574C178.804 23.3993 179.96 24.4469 179.96 26.2171C179.96 28.4363 178.153 30.0744 175.332 30.2477L175.057 31.5604C175.03 31.6887 174.917 31.7805 174.786 31.7805H172.616C172.437 31.7805 172.305 31.6136 172.346 31.4396L172.695 29.9716C171.296 29.5738 170.171 28.7999 169.515 27.8447C169.433 27.7244 169.46 27.5601 169.575 27.4705L171.092 26.2907C171.217 26.1935 171.396 26.222 171.489 26.3506C172.293 27.4693 173.526 28.1318 175.011 28.1318C176.348 28.1318 177.359 27.4815 177.359 26.5422C177.359 25.8197 176.853 25.4946 175.156 25.1333C172.229 24.5192 171.073 23.4354 171.073 21.6652C171.073 19.6113 172.799 18.0598 175.403 17.8583L175.687 16.5026C175.714 16.3743 175.827 16.2824 175.959 16.2824H178.1C178.276 16.2824 178.408 16.4455 178.37 16.6181L178.041 18.1371C179.162 18.482 180.074 19.0987 180.642 19.8596C180.73 19.9776 180.707 20.1446 180.593 20.2379Z" fill="black"/>
<path d="M201.167 18.1684C201.127 18.0605 201.023 17.9891 200.908 17.9891H198.655C198.54 17.9891 198.437 18.0606 198.396 18.1686L194.057 29.7083C193.988 29.8895 194.122 30.0829 194.316 30.0829H196.022C196.138 30.0829 196.242 30.0108 196.282 29.9022L197.209 27.4047H202.312L203.247 29.9029C203.288 30.0112 203.391 30.0829 203.507 30.0829H205.255C205.449 30.0829 205.583 29.8894 205.515 29.7082L201.167 18.1684ZM197.95 25.4088L199.744 20.5577L201.563 25.4088H197.95Z" fill="black"/>
<path d="M216.489 28.2607C216.332 28.274 216.184 28.2806 215.972 28.2806C215.265 28.2806 214.827 28.188 214.827 27.4132V23.0759H216.377C216.53 23.0759 216.654 22.9518 216.654 22.7988V21.5086C216.654 21.3556 216.53 21.2315 216.377 21.2315H214.827V18.9483C214.827 18.7953 214.703 18.6713 214.55 18.6713H212.948C212.795 18.6713 212.671 18.7953 212.671 18.9483V21.2315H209.176V20.8441C209.176 19.9008 209.589 19.6735 210.355 19.6735C210.485 19.6735 210.582 19.6735 210.677 19.6758C210.833 19.6796 210.961 19.5549 210.961 19.3989V18.0989C210.961 17.951 210.845 17.8289 210.697 17.8221C210.485 17.8123 210.325 17.8123 210.085 17.8123C208.005 17.8123 206.986 18.8481 206.986 20.7009V21.2315H206.05C205.897 21.2315 205.773 21.3556 205.773 21.5086V22.7988C205.773 22.9518 205.897 23.0759 206.05 23.0759H206.986V29.8059C206.986 29.9589 207.11 30.0829 207.263 30.0829H208.899C209.052 30.0829 209.176 29.9589 209.176 29.8059V23.0759H212.671V27.8174C212.671 29.6282 213.597 30.1839 215.332 30.1839C215.784 30.1839 216.202 30.1506 216.556 30.0974C216.691 30.0771 216.789 29.9599 216.789 29.8236V28.5367C216.789 28.3745 216.65 28.247 216.489 28.2607Z" fill="black"/>
<path d="M221.985 21.063C219.501 21.063 217.724 23.0591 217.724 25.6614C217.724 28.3985 219.501 30.2682 222.07 30.2682C223.733 30.2682 225.113 29.4561 225.797 28.0424C225.868 27.8964 225.793 27.7211 225.641 27.6652L224.315 27.1791C224.179 27.1294 224.027 27.1917 223.968 27.3235C223.643 28.0536 222.94 28.4406 222.078 28.4406C220.848 28.4406 219.981 27.5732 219.821 26.1414H225.692C225.845 26.1414 225.969 26.0174 225.969 25.8644V25.4593C225.969 23.0085 224.579 21.063 221.985 21.063ZM219.914 24.5834C220.208 23.4464 220.975 22.8569 221.969 22.8569C223.181 22.8569 223.762 23.657 223.779 24.5834H219.914Z" fill="black"/>
<path d="M232.408 21.1916C232.313 21.1852 232.21 21.1809 232.091 21.1809C230.98 21.1809 230.087 21.7116 229.699 22.5116V21.5085C229.699 21.3555 229.575 21.2315 229.422 21.2315H227.787C227.634 21.2315 227.51 21.3555 227.51 21.5085V29.8058C227.51 29.9588 227.634 30.0829 227.787 30.0829H229.422C229.575 30.0829 229.699 29.9588 229.699 29.8058V25.5099C229.699 24.1202 230.66 23.3286 231.914 23.3286C232.083 23.3286 232.223 23.3344 232.363 23.3462C232.525 23.3598 232.664 23.2328 232.664 23.0703V21.4679C232.664 21.3228 232.552 21.2014 232.408 21.1916Z" fill="black"/>
<path d="M238.795 21.063C237.667 21.063 236.824 21.5094 236.285 22.1579V21.5085C236.285 21.3555 236.161 21.2315 236.008 21.2315H234.373C234.22 21.2315 234.096 21.3555 234.096 21.5085V32.8209C234.096 32.9739 234.22 33.0979 234.373 33.0979H236.008C236.161 33.0979 236.285 32.9739 236.285 32.8209V29.1649C236.824 29.8218 237.667 30.2682 238.795 30.2682C241.254 30.2682 242.669 28.1795 242.669 25.6614C242.669 23.1517 241.254 21.063 238.795 21.063ZM238.315 28.3733C237.128 28.3733 236.235 27.4889 236.235 25.9225V25.4172C236.235 23.8255 237.128 22.958 238.315 22.958C239.713 22.958 240.463 24.0612 240.463 25.6614C240.463 27.27 239.713 28.3733 238.315 28.3733Z" fill="black"/>
<path d="M251.647 28.4294C251.306 28.4141 251.167 28.2396 251.167 27.8427V24.1286C251.167 22.0821 249.853 21.063 247.672 21.063C245.785 21.063 244.51 22.0814 244.001 23.4149C243.94 23.5753 244.035 23.7527 244.203 23.7876L245.725 24.103C245.859 24.1308 245.994 24.0566 246.041 23.928C246.285 23.2532 246.757 22.9159 247.587 22.9159C248.615 22.9159 249.027 23.4128 249.027 24.2129V24.356L246.703 24.8192C244.96 25.1561 243.621 25.8972 243.621 27.6237C243.621 29.1985 244.909 30.2345 246.619 30.2345C247.773 30.2345 248.682 29.8723 249.246 29.2491C249.572 29.9396 250.338 30.2411 251.666 30.1115C251.808 30.0977 251.916 29.9777 251.916 29.8354V28.7059C251.916 28.5562 251.797 28.4361 251.647 28.4294ZM249.027 26.9499C249.027 27.9858 248.042 28.5332 247.006 28.5332C246.265 28.5332 245.785 28.1627 245.785 27.5142C245.785 26.7647 246.391 26.5036 247.208 26.3351L249.027 25.9562V26.9499Z" fill="black"/>
<path d="M260.418 21.2315H258.785C258.666 21.2315 258.56 21.3072 258.522 21.4196L256.548 27.2447L254.524 21.4176C254.485 21.3062 254.38 21.2315 254.262 21.2315H252.577C252.384 21.2315 252.25 21.4249 252.318 21.606L255.377 29.746L255.066 30.5124C254.796 31.1861 254.468 31.363 253.819 31.363C253.673 31.363 253.56 31.3577 253.444 31.3485C253.283 31.3359 253.146 31.4633 253.146 31.6247V32.8745C253.146 33.017 253.254 33.1368 253.396 33.1502C253.562 33.1659 253.723 33.1737 254.021 33.1737C255.916 33.1737 256.708 32.2052 257.247 30.7483L260.677 21.6059C260.745 21.4247 260.611 21.2315 260.418 21.2315Z" fill="black"/>
</g>
</g>
<defs>
<clipPath id="clip0_22_128">
<rect width="97.3944" height="24" fill="white" transform="translate(163.303 12)"/>
</clipPath>
<clipPath id="clip1_22_128">
<rect width="97.3944" height="24" fill="white" transform="translate(163.303 12)"/>
</clipPath>
</defs>
</svg>
