<svg width="320" height="48" viewBox="0 0 320 48" fill="none" xmlns="http://www.w3.org/2000/svg">
<path d="M80.6029 24.684V29.5H79.0669V18.012H83.4509C85.8829 18.012 87.4349 19.148 87.4349 21.34C87.4349 23.5 85.8829 24.684 83.4509 24.684H80.6029ZM80.6029 23.356H83.3709C85.0029 23.356 85.9149 22.636 85.9149 21.34C85.9149 20.044 85.0029 19.34 83.3709 19.34H80.6029V23.356ZM90.642 29.644C89.122 29.644 87.89 28.748 87.89 27.244C87.89 25.58 89.186 24.892 91.058 24.508L93.09 24.092V23.74C93.09 22.78 92.562 22.236 91.442 22.236C90.386 22.236 89.762 22.732 89.506 23.66L88.146 23.308C88.546 21.948 89.778 20.972 91.49 20.972C93.362 20.972 94.514 21.884 94.514 23.676V27.756C94.514 28.3 94.85 28.476 95.41 28.348V29.5C94.13 29.66 93.394 29.356 93.218 28.556C92.706 29.212 91.778 29.644 90.642 29.644ZM93.09 26.652V25.212L91.458 25.564C90.178 25.82 89.314 26.172 89.314 27.18C89.314 27.996 89.906 28.476 90.818 28.476C92.05 28.476 93.09 27.724 93.09 26.652ZM99.8181 30.412C99.3381 31.676 98.6821 32.476 97.2261 32.476C96.8741 32.476 96.6981 32.46 96.4421 32.412V31.164C96.7141 31.228 96.8901 31.244 97.1301 31.244C97.7541 31.244 98.0901 31.02 98.4261 30.188L98.8261 29.196L95.7221 21.132H97.2421L99.5941 27.532L101.914 21.132H103.418L99.8181 30.412ZM111.862 21.132H113.078L114.806 27.372L116.55 21.132H117.99L115.446 29.5H114.182L112.438 23.292L110.694 29.5H109.43L106.886 21.132H108.374L110.134 27.356L111.862 21.132ZM119.954 19.74C119.426 19.74 119.058 19.372 119.058 18.828C119.058 18.284 119.426 17.916 119.954 17.916C120.482 17.916 120.85 18.284 120.85 18.828C120.85 19.372 120.482 19.74 119.954 19.74ZM120.674 21.132V29.5H119.234V21.132H120.674ZM123.142 27.5V22.364H121.846V21.132H123.142V18.684H124.566V21.132H126.47V22.364H124.566V27.276C124.566 28.156 124.998 28.316 125.734 28.316C126.07 28.316 126.31 28.3 126.646 28.22V29.452C126.278 29.532 125.862 29.58 125.382 29.58C123.958 29.58 123.142 29.1 123.142 27.5ZM128.195 29.5V18.012H129.635V22.268C130.115 21.58 130.947 20.972 132.131 20.972C133.907 20.972 134.915 22.204 134.915 23.98V29.5H133.475V24.364C133.475 23.196 132.979 22.316 131.731 22.316C130.691 22.316 129.635 23.116 129.635 24.508V29.5H128.195Z" fill="black"/>
<g clip-path="url(#clip0_22_98)">
<g clip-path="url(#clip1_22_98)">
<path fill-rule="evenodd" clip-rule="evenodd" d="M168.395 15.4874C167.88 14.0671 166.761 12.9479 165.342 12.4336C164.034 12.0217 162.845 12.0217 160.424 12.0217H153.164L153.165 12.0227C150.758 12.0227 149.554 12.0227 148.268 12.4225C146.848 12.9369 145.729 14.0561 145.215 15.4772C144.805 16.7765 144.805 17.9788 144.805 20.3862V27.6499C144.805 30.0702 144.805 31.2623 145.205 32.5588C145.719 33.9791 146.838 35.0983 148.257 35.6126C149.556 36.0245 150.758 36.0245 153.165 36.0245H160.436C162.845 36.0245 164.046 36.0245 165.342 35.6126C166.762 35.0983 167.88 33.9791 168.395 32.5588C168.805 31.2596 168.805 30.0573 168.805 27.6499V20.3963C168.805 17.9862 168.805 16.7839 168.395 15.4874ZM162.094 20.2379L160.71 21.3727C160.589 21.4713 160.414 21.4498 160.316 21.3288C159.613 20.4589 158.506 19.9673 157.306 19.9673C155.969 19.9673 155.138 20.5453 155.138 21.3762C155.138 22.0626 155.789 22.4239 157.776 22.8574C160.305 23.3993 161.461 24.4469 161.461 26.2171C161.461 28.4363 159.654 30.0744 156.833 30.2477L156.557 31.5604C156.531 31.6887 156.417 31.7805 156.286 31.7805H154.116C153.937 31.7805 153.805 31.6136 153.847 31.4396L154.195 29.9716C152.797 29.5738 151.672 28.7999 151.016 27.8447C150.933 27.7244 150.96 27.5601 151.076 27.4705L152.592 26.2907C152.717 26.1935 152.897 26.222 152.989 26.3506C153.793 27.4693 155.026 28.1318 156.511 28.1318C157.848 28.1318 158.859 27.4815 158.859 26.5422C158.859 25.8197 158.354 25.4946 156.656 25.1333C153.73 24.5192 152.574 23.4354 152.574 21.6652C152.574 19.6113 154.3 18.0598 156.903 17.8583L157.188 16.5026C157.215 16.3743 157.328 16.2824 157.459 16.2824H159.6C159.776 16.2824 159.908 16.4455 159.871 16.6181L159.541 18.1371C160.662 18.482 161.574 19.0987 162.142 19.8596C162.23 19.9776 162.207 20.1446 162.094 20.2379Z" fill="black"/>
<path d="M182.667 18.1685C182.627 18.0606 182.523 17.9891 182.408 17.9891H180.155C180.04 17.9891 179.937 18.0607 179.896 18.1687L175.557 29.7084C175.488 29.8895 175.622 30.0829 175.816 30.0829H177.522C177.638 30.0829 177.742 30.0109 177.782 29.9023L178.709 27.4048H183.812L184.747 29.903C184.788 30.0112 184.891 30.0829 185.007 30.0829H186.755C186.949 30.0829 187.083 29.8894 187.015 29.7082L182.667 18.1685ZM179.45 25.4088L181.244 20.5578L183.063 25.4088H179.45Z" fill="black"/>
<path d="M197.989 28.2607C197.832 28.274 197.684 28.2806 197.472 28.2806C196.765 28.2806 196.327 28.188 196.327 27.4132V23.0759H197.877C198.03 23.0759 198.154 22.9518 198.154 22.7988V21.5086C198.154 21.3556 198.03 21.2315 197.877 21.2315H196.327V18.9483C196.327 18.7953 196.203 18.6713 196.05 18.6713H194.448C194.295 18.6713 194.171 18.7953 194.171 18.9483V21.2315H190.676V20.8441C190.676 19.9008 191.089 19.6735 191.855 19.6735C191.985 19.6735 192.082 19.6735 192.177 19.6758C192.333 19.6796 192.461 19.5549 192.461 19.3989V18.0989C192.461 17.951 192.345 17.8289 192.197 17.8221C191.985 17.8123 191.825 17.8123 191.585 17.8123C189.505 17.8123 188.486 18.8481 188.486 20.7009V21.2315H187.55C187.397 21.2315 187.273 21.3556 187.273 21.5086V22.7988C187.273 22.9518 187.397 23.0759 187.55 23.0759H188.486V29.8059C188.486 29.9589 188.61 30.0829 188.763 30.0829H190.399C190.552 30.0829 190.676 29.9589 190.676 29.8059V23.0759H194.171V27.8174C194.171 29.6282 195.097 30.1839 196.832 30.1839C197.284 30.1839 197.702 30.1506 198.056 30.0974C198.191 30.0771 198.289 29.9599 198.289 29.8236V28.5367C198.289 28.3745 198.15 28.247 197.989 28.2607Z" fill="black"/>
<path d="M203.485 21.0631C201.001 21.0631 199.224 23.0591 199.224 25.6614C199.224 28.3986 201.001 30.2682 203.57 30.2682C205.233 30.2682 206.613 29.4562 207.297 28.0424C207.368 27.8964 207.293 27.7211 207.141 27.6653L205.815 27.1791C205.679 27.1294 205.527 27.1917 205.468 27.3236C205.143 28.0537 204.44 28.4407 203.578 28.4407C202.348 28.4407 201.481 27.5732 201.321 26.1415H207.192C207.345 26.1415 207.469 26.0175 207.469 25.8645V25.4593C207.469 23.0086 206.079 21.0631 203.485 21.0631ZM201.414 24.5834C201.708 23.4465 202.475 22.857 203.469 22.857C204.681 22.857 205.262 23.6571 205.279 24.5834H201.414Z" fill="black"/>
<path d="M213.908 21.1916C213.814 21.1852 213.71 21.1809 213.591 21.1809C212.48 21.1809 211.587 21.7116 211.2 22.5116V21.5085C211.2 21.3555 211.076 21.2315 210.923 21.2315H209.287C209.134 21.2315 209.01 21.3555 209.01 21.5085V29.8058C209.01 29.9588 209.134 30.0829 209.287 30.0829H210.923C211.076 30.0829 211.2 29.9588 211.2 29.8058V25.5099C211.2 24.1202 212.16 23.3286 213.415 23.3286C213.584 23.3286 213.723 23.3344 213.863 23.3462C214.025 23.3598 214.164 23.2328 214.164 23.0703V21.4679C214.164 21.3228 214.052 21.2014 213.908 21.1916Z" fill="black"/>
<path d="M220.295 21.0631C219.167 21.0631 218.324 21.5095 217.785 22.1579V21.5086C217.785 21.3556 217.661 21.2316 217.508 21.2316H215.873C215.72 21.2316 215.596 21.3556 215.596 21.5086V32.821C215.596 32.974 215.72 33.098 215.873 33.098H217.508C217.661 33.098 217.785 32.974 217.785 32.821V29.165C218.324 29.8218 219.167 30.2682 220.295 30.2682C222.754 30.2682 224.169 28.1796 224.169 25.6614C224.169 23.1517 222.754 21.0631 220.295 21.0631ZM219.815 28.3733C218.627 28.3733 217.735 27.489 217.735 25.9225V25.4172C217.735 23.8255 218.627 22.958 219.815 22.958C221.213 22.958 221.963 24.0613 221.963 25.6614C221.963 27.27 221.213 28.3733 219.815 28.3733Z" fill="black"/>
<path d="M233.147 28.4294C232.806 28.4142 232.667 28.2397 232.667 27.8427V24.1287C232.667 22.0822 231.353 21.0631 229.172 21.0631C227.285 21.0631 226.01 22.0814 225.501 23.415C225.44 23.5754 225.535 23.7528 225.703 23.7876L227.225 24.1031C227.359 24.1308 227.494 24.0566 227.541 23.928C227.785 23.2533 228.257 22.9159 229.087 22.9159C230.115 22.9159 230.527 23.4128 230.527 24.2129V24.356L228.203 24.8192C226.46 25.1562 225.121 25.8973 225.121 27.6238C225.121 29.1986 226.409 30.2345 228.119 30.2345C229.273 30.2345 230.182 29.8724 230.746 29.2492C231.072 29.9397 231.838 30.2412 233.166 30.1116C233.308 30.0978 233.416 29.9778 233.416 29.8355V28.706C233.416 28.5563 233.297 28.4361 233.147 28.4294ZM230.527 26.95C230.527 27.9859 229.542 28.5333 228.506 28.5333C227.765 28.5333 227.285 28.1628 227.285 27.5143C227.285 26.7647 227.891 26.5036 228.708 26.3352L230.527 25.9562V26.95Z" fill="black"/>
<path d="M241.918 21.2316H240.285C240.166 21.2316 240.06 21.3072 240.022 21.4197L238.048 27.2448L236.024 21.4177C235.985 21.3063 235.88 21.2316 235.762 21.2316H234.077C233.884 21.2316 233.75 21.4249 233.818 21.6061L236.877 29.7461L236.566 30.5124C236.296 31.1862 235.968 31.3631 235.319 31.3631C235.173 31.3631 235.061 31.3578 234.944 31.3486C234.783 31.336 234.646 31.4633 234.646 31.6247V32.8745C234.646 33.0171 234.754 33.1369 234.896 33.1503C235.062 33.166 235.223 33.1738 235.521 33.1738C237.416 33.1738 238.208 32.2053 238.747 30.7483L242.178 21.6059C242.245 21.4248 242.112 21.2316 241.918 21.2316Z" fill="black"/>
</g>
</g>
<defs>
<clipPath id="clip0_22_98">
<rect width="97.3944" height="24" fill="white" transform="translate(144.803 12)"/>
</clipPath>
<clipPath id="clip1_22_98">
<rect width="97.3944" height="24" fill="white" transform="translate(144.803 12)"/>
</clipPath>
</defs>
</svg>
