<svg width="320" height="48" viewBox="0 0 320 48" fill="none" xmlns="http://www.w3.org/2000/svg">
<path d="M59.9134 23.756C59.9134 26.476 61.4174 28.316 63.5454 28.316C65.0334 28.316 66.1054 27.452 66.5214 25.996L67.9774 26.476C67.3054 28.46 65.7374 29.676 63.5454 29.676C60.5694 29.676 58.3774 27.26 58.3774 23.756C58.3774 20.252 60.5694 17.836 63.5454 17.836C65.7374 17.836 67.3054 19.052 67.9774 21.036L66.5214 21.516C66.1054 20.06 65.0334 19.196 63.5454 19.196C61.4174 19.196 59.9134 21.036 59.9134 23.756ZM69.3722 29.5V18.012H70.8122V22.268C71.2922 21.58 72.1242 20.972 73.3082 20.972C75.0842 20.972 76.0922 22.204 76.0922 23.98V29.5H74.6522V24.364C74.6522 23.196 74.1562 22.316 72.9082 22.316C71.8682 22.316 70.8122 23.116 70.8122 24.508V29.5H69.3722ZM81.5875 29.676C79.2675 29.676 77.6675 27.9 77.6675 25.324C77.6675 22.828 79.2515 20.972 81.5235 20.972C83.8595 20.972 85.0915 22.748 85.0915 25.068V25.548H79.0435C79.1235 27.308 80.1315 28.428 81.5875 28.428C82.7075 28.428 83.5075 27.82 83.7635 26.828L85.0275 27.276C84.5155 28.764 83.2515 29.676 81.5875 29.676ZM81.5075 22.204C80.2915 22.204 79.3795 23.02 79.1235 24.444H83.6355C83.6035 23.26 82.9635 22.204 81.5075 22.204ZM87.5881 25.324C87.5881 27.228 88.6121 28.412 90.1001 28.412C91.2521 28.412 91.9401 27.676 92.1801 26.636L93.4601 27.228C93.0601 28.62 91.8441 29.676 90.1001 29.676C87.7641 29.676 86.1481 27.9 86.1481 25.324C86.1481 22.732 87.7641 20.972 90.1001 20.972C91.8441 20.972 93.0281 21.98 93.4281 23.372L92.1801 23.996C91.9401 22.972 91.2521 22.22 90.1001 22.22C88.6121 22.22 87.5881 23.404 87.5881 25.324ZM96.3166 18.012V25.036L100.029 21.132H101.821L98.5566 24.428L102.093 29.5H100.413L97.5326 25.468L96.3166 26.7V29.5H94.8766V18.012H96.3166ZM110.12 25.324C110.12 27.916 108.52 29.676 106.232 29.676C103.944 29.676 102.344 27.916 102.344 25.324C102.344 22.732 103.944 20.972 106.232 20.972C108.52 20.972 110.12 22.732 110.12 25.324ZM103.8 25.324C103.8 27.228 104.76 28.444 106.232 28.444C107.704 28.444 108.664 27.228 108.664 25.324C108.664 23.404 107.704 22.188 106.232 22.188C104.76 22.188 103.8 23.404 103.8 25.324ZM118.431 21.132V29.5H116.991V28.348C116.511 29.052 115.695 29.676 114.511 29.676C112.719 29.676 111.711 28.444 111.711 26.668V21.132H113.151V26.364C113.151 27.548 113.663 28.348 114.895 28.348C115.935 28.348 116.991 27.564 116.991 26.172V21.132H118.431ZM120.886 27.5V22.364H119.59V21.132H120.886V18.684H122.31V21.132H124.214V22.364H122.31V27.276C122.31 28.156 122.742 28.316 123.478 28.316C123.814 28.316 124.054 28.3 124.39 28.22V29.452C124.022 29.532 123.606 29.58 123.126 29.58C121.702 29.58 120.886 29.1 120.886 27.5ZM133.139 21.132H134.355L136.083 27.372L137.827 21.132H139.267L136.723 29.5H135.459L133.715 23.292L131.971 29.5H130.707L128.163 21.132H129.651L131.411 27.356L133.139 21.132ZM141.23 19.74C140.702 19.74 140.334 19.372 140.334 18.828C140.334 18.284 140.702 17.916 141.23 17.916C141.758 17.916 142.126 18.284 142.126 18.828C142.126 19.372 141.758 19.74 141.23 19.74ZM141.95 21.132V29.5H140.51V21.132H141.95ZM144.418 27.5V22.364H143.122V21.132H144.418V18.684H145.842V21.132H147.746V22.364H145.842V27.276C145.842 28.156 146.274 28.316 147.01 28.316C147.346 28.316 147.586 28.3 147.922 28.22V29.452C147.554 29.532 147.138 29.58 146.658 29.58C145.234 29.58 144.418 29.1 144.418 27.5ZM149.472 29.5V18.012H150.912V22.268C151.392 21.58 152.224 20.972 153.408 20.972C155.184 20.972 156.192 22.204 156.192 23.98V29.5H154.752V24.364C154.752 23.196 154.256 22.316 153.008 22.316C151.968 22.316 150.912 23.116 150.912 24.508V29.5H149.472Z" fill="black"/>
<g clip-path="url(#clip0_22_226)">
<g clip-path="url(#clip1_22_226)">
<path fill-rule="evenodd" clip-rule="evenodd" d="M188.895 15.4874C188.38 14.0671 187.261 12.9479 185.842 12.4336C184.534 12.0217 183.345 12.0217 180.924 12.0217H173.664L173.665 12.0227C171.258 12.0227 170.054 12.0227 168.768 12.4225C167.348 12.9369 166.229 14.0561 165.715 15.4772C165.305 16.7765 165.305 17.9788 165.305 20.3862V27.6499C165.305 30.0702 165.305 31.2623 165.705 32.5588C166.219 33.9791 167.338 35.0983 168.757 35.6126C170.056 36.0245 171.258 36.0245 173.665 36.0245H180.936C183.345 36.0245 184.546 36.0245 185.842 35.6126C187.262 35.0983 188.38 33.9791 188.895 32.5588C189.305 31.2596 189.305 30.0573 189.305 27.6499V20.3963C189.305 17.9862 189.305 16.7839 188.895 15.4874ZM182.594 20.2379L181.21 21.3727C181.089 21.4713 180.914 21.4498 180.816 21.3288C180.113 20.4589 179.006 19.9673 177.806 19.9673C176.469 19.9673 175.638 20.5453 175.638 21.3762C175.638 22.0626 176.289 22.4239 178.276 22.8574C180.805 23.3993 181.961 24.4469 181.961 26.2171C181.961 28.4363 180.154 30.0744 177.333 30.2477L177.057 31.5604C177.031 31.6887 176.917 31.7805 176.786 31.7805H174.616C174.437 31.7805 174.305 31.6136 174.347 31.4396L174.695 29.9716C173.297 29.5738 172.172 28.7999 171.516 27.8447C171.433 27.7244 171.46 27.5601 171.576 27.4705L173.092 26.2907C173.217 26.1935 173.397 26.222 173.489 26.3506C174.293 27.4693 175.526 28.1318 177.011 28.1318C178.348 28.1318 179.359 27.4815 179.359 26.5422C179.359 25.8197 178.854 25.4946 177.156 25.1333C174.23 24.5192 173.074 23.4354 173.074 21.6652C173.074 19.6113 174.8 18.0598 177.403 17.8583L177.688 16.5026C177.715 16.3743 177.828 16.2824 177.959 16.2824H180.1C180.276 16.2824 180.408 16.4455 180.371 16.6181L180.041 18.1371C181.162 18.482 182.074 19.0987 182.642 19.8596C182.73 19.9776 182.707 20.1446 182.594 20.2379Z" fill="black"/>
<path d="M203.167 18.1684C203.127 18.0605 203.023 17.9891 202.908 17.9891H200.655C200.54 17.9891 200.437 18.0606 200.396 18.1686L196.057 29.7083C195.988 29.8895 196.122 30.0829 196.316 30.0829H198.022C198.138 30.0829 198.242 30.0108 198.282 29.9022L199.209 27.4047H204.312L205.247 29.9029C205.288 30.0112 205.391 30.0829 205.507 30.0829H207.255C207.449 30.0829 207.583 29.8894 207.515 29.7082L203.167 18.1684ZM199.95 25.4088L201.744 20.5577L203.563 25.4088H199.95Z" fill="black"/>
<path d="M218.489 28.2607C218.332 28.274 218.184 28.2806 217.972 28.2806C217.265 28.2806 216.827 28.188 216.827 27.4132V23.0759H218.377C218.53 23.0759 218.654 22.9518 218.654 22.7988V21.5086C218.654 21.3556 218.53 21.2315 218.377 21.2315H216.827V18.9483C216.827 18.7953 216.703 18.6713 216.55 18.6713H214.948C214.795 18.6713 214.671 18.7953 214.671 18.9483V21.2315H211.176V20.8441C211.176 19.9008 211.589 19.6735 212.355 19.6735C212.485 19.6735 212.582 19.6735 212.677 19.6758C212.833 19.6796 212.961 19.5549 212.961 19.3989V18.0989C212.961 17.951 212.845 17.8289 212.697 17.8221C212.485 17.8123 212.325 17.8123 212.085 17.8123C210.005 17.8123 208.986 18.8481 208.986 20.7009V21.2315H208.05C207.897 21.2315 207.773 21.3556 207.773 21.5086V22.7988C207.773 22.9518 207.897 23.0759 208.05 23.0759H208.986V29.8059C208.986 29.9589 209.11 30.0829 209.263 30.0829H210.899C211.052 30.0829 211.176 29.9589 211.176 29.8059V23.0759H214.671V27.8174C214.671 29.6282 215.597 30.1839 217.332 30.1839C217.784 30.1839 218.202 30.1506 218.556 30.0974C218.691 30.0771 218.789 29.9599 218.789 29.8236V28.5367C218.789 28.3745 218.65 28.247 218.489 28.2607Z" fill="black"/>
<path d="M223.985 21.063C221.501 21.063 219.724 23.0591 219.724 25.6614C219.724 28.3985 221.501 30.2682 224.07 30.2682C225.733 30.2682 227.113 29.4561 227.797 28.0424C227.868 27.8964 227.793 27.7211 227.641 27.6652L226.315 27.1791C226.179 27.1294 226.027 27.1917 225.968 27.3235C225.643 28.0536 224.94 28.4406 224.078 28.4406C222.848 28.4406 221.981 27.5732 221.821 26.1414H227.692C227.845 26.1414 227.969 26.0174 227.969 25.8644V25.4593C227.969 23.0085 226.579 21.063 223.985 21.063ZM221.914 24.5834C222.208 23.4464 222.975 22.8569 223.969 22.8569C225.181 22.8569 225.762 23.657 225.779 24.5834H221.914Z" fill="black"/>
<path d="M234.408 21.1916C234.314 21.1852 234.21 21.1809 234.091 21.1809C232.98 21.1809 232.087 21.7116 231.7 22.5116V21.5085C231.7 21.3555 231.576 21.2315 231.423 21.2315H229.787C229.634 21.2315 229.51 21.3555 229.51 21.5085V29.8058C229.51 29.9588 229.634 30.0829 229.787 30.0829H231.423C231.576 30.0829 231.7 29.9588 231.7 29.8058V25.5099C231.7 24.1202 232.66 23.3286 233.915 23.3286C234.084 23.3286 234.223 23.3344 234.363 23.3462C234.525 23.3598 234.664 23.2328 234.664 23.0703V21.4679C234.664 21.3228 234.552 21.2014 234.408 21.1916Z" fill="black"/>
<path d="M240.795 21.063C239.667 21.063 238.824 21.5094 238.285 22.1579V21.5085C238.285 21.3555 238.161 21.2315 238.008 21.2315H236.373C236.22 21.2315 236.096 21.3555 236.096 21.5085V32.8209C236.096 32.9739 236.22 33.0979 236.373 33.0979H238.008C238.161 33.0979 238.285 32.9739 238.285 32.8209V29.1649C238.824 29.8218 239.667 30.2682 240.795 30.2682C243.254 30.2682 244.669 28.1795 244.669 25.6614C244.669 23.1517 243.254 21.063 240.795 21.063ZM240.315 28.3733C239.127 28.3733 238.235 27.4889 238.235 25.9225V25.4172C238.235 23.8255 239.127 22.958 240.315 22.958C241.713 22.958 242.463 24.0612 242.463 25.6614C242.463 27.27 241.713 28.3733 240.315 28.3733Z" fill="black"/>
<path d="M253.647 28.4294C253.306 28.4141 253.167 28.2396 253.167 27.8427V24.1286C253.167 22.0821 251.853 21.063 249.672 21.063C247.785 21.063 246.51 22.0814 246.001 23.4149C245.94 23.5753 246.035 23.7527 246.203 23.7876L247.725 24.103C247.859 24.1308 247.994 24.0566 248.041 23.928C248.285 23.2532 248.757 22.9159 249.587 22.9159C250.615 22.9159 251.027 23.4128 251.027 24.2129V24.356L248.703 24.8192C246.96 25.1561 245.621 25.8972 245.621 27.6237C245.621 29.1985 246.909 30.2345 248.619 30.2345C249.773 30.2345 250.682 29.8723 251.246 29.2491C251.572 29.9396 252.338 30.2411 253.666 30.1115C253.808 30.0977 253.916 29.9777 253.916 29.8354V28.7059C253.916 28.5562 253.797 28.4361 253.647 28.4294ZM251.027 26.9499C251.027 27.9858 250.042 28.5332 249.006 28.5332C248.265 28.5332 247.785 28.1627 247.785 27.5142C247.785 26.7647 248.391 26.5036 249.208 26.3351L251.027 25.9562V26.9499Z" fill="black"/>
<path d="M262.418 21.2315H260.785C260.666 21.2315 260.56 21.3072 260.522 21.4196L258.548 27.2447L256.524 21.4176C256.485 21.3062 256.38 21.2315 256.262 21.2315H254.577C254.384 21.2315 254.25 21.4249 254.318 21.606L257.377 29.746L257.066 30.5124C256.796 31.1861 256.468 31.363 255.819 31.363C255.673 31.363 255.561 31.3577 255.444 31.3485C255.283 31.3359 255.146 31.4633 255.146 31.6247V32.8745C255.146 33.017 255.254 33.1368 255.396 33.1502C255.562 33.1659 255.723 33.1737 256.021 33.1737C257.916 33.1737 258.708 32.2052 259.247 30.7483L262.678 21.6059C262.745 21.4247 262.612 21.2315 262.418 21.2315Z" fill="black"/>
</g>
</g>
<defs>
<clipPath id="clip0_22_226">
<rect width="97.3944" height="24" fill="white" transform="translate(165.303 12)"/>
</clipPath>
<clipPath id="clip1_22_226">
<rect width="97.3944" height="24" fill="white" transform="translate(165.303 12)"/>
</clipPath>
</defs>
</svg>
