<svg width="320" height="48" viewBox="0 0 320 48" fill="none" xmlns="http://www.w3.org/2000/svg">
<g clip-path="url(#clip0_3855_984)">
<path fill-rule="evenodd" clip-rule="evenodd" d="M173.362 12.0227C170.955 12.0227 169.751 12.0227 168.465 12.4225C167.045 12.9368 165.926 14.0561 165.412 15.4772C165.002 16.7765 165.002 17.9788 165.002 20.3862V27.6499C165.002 30.0702 165.002 31.2623 165.402 32.5588C165.916 33.9791 167.035 35.0983 168.454 35.6126C169.753 36.0245 170.955 36.0245 173.362 36.0245H180.633C183.042 36.0245 184.243 36.0245 185.539 35.6126C186.959 35.0983 188.077 33.9791 188.592 32.5588C189.002 31.2596 189.002 30.0573 189.002 27.6499V20.3963C189.002 17.9862 189.002 16.7839 188.592 15.4874C188.077 14.0671 186.958 12.9479 185.539 12.4336C184.231 12.0217 183.042 12.0217 180.621 12.0217H173.361C173.361 12.0217 173.362 12.0227 173.362 12.0227Z" fill="#00D633"/>
<path d="M177.973 22.8574C180.502 23.3993 181.658 24.447 181.658 26.2172C181.658 28.4363 179.851 30.0744 177.03 30.2478L176.755 31.5604C176.728 31.6887 176.615 31.7806 176.484 31.7806H174.313C174.134 31.7806 174.003 31.6137 174.044 31.4396L174.392 29.9717C172.994 29.5739 171.869 28.8 171.213 27.8447C171.13 27.7245 171.158 27.5601 171.273 27.4706L172.79 26.2908C172.915 26.1936 173.094 26.2221 173.186 26.3507C173.99 27.4694 175.223 28.1319 176.708 28.1319C178.045 28.1319 179.057 27.4816 179.057 26.5423C179.057 25.8198 178.551 25.4947 176.853 25.1334C173.927 24.5193 172.771 23.4355 172.771 21.6653C172.771 19.6114 174.497 18.0599 177.101 17.8584L177.385 16.5027C177.412 16.3744 177.525 16.2825 177.656 16.2825H179.797C179.974 16.2825 180.105 16.4455 180.068 16.6182L179.739 18.1372C180.859 18.4821 181.771 19.0987 182.339 19.8597C182.427 19.9776 182.405 20.1447 182.291 20.238L180.907 21.3728C180.787 21.4714 180.611 21.4499 180.513 21.3289C179.81 20.459 178.703 19.9673 177.503 19.9673C176.167 19.9673 175.336 20.5454 175.336 21.3763C175.336 22.0627 175.986 22.4239 177.973 22.8574Z" fill="white"/>
<path d="M202.864 18.1684C202.824 18.0605 202.721 17.989 202.605 17.989H200.353C200.237 17.989 200.134 18.0605 200.093 18.1685L195.754 29.7083C195.686 29.8894 195.82 30.0828 196.013 30.0828H197.719C197.835 30.0828 197.939 30.0108 197.979 29.9022L198.906 27.4047H204.01L204.944 29.9029C204.985 30.0111 205.088 30.0828 205.204 30.0828H206.953C207.146 30.0828 207.28 29.8893 207.212 29.7081L202.864 18.1684ZM199.647 25.4087L201.441 20.5577L203.26 25.4087H199.647Z" fill="white"/>
<path d="M218.186 28.2607C218.03 28.274 217.881 28.2806 217.669 28.2806C216.962 28.2806 216.524 28.188 216.524 27.4132V23.0759H218.075C218.228 23.0759 218.352 22.9518 218.352 22.7988V21.5086C218.352 21.3556 218.228 21.2315 218.075 21.2315H216.524V18.9483C216.524 18.7953 216.4 18.6713 216.247 18.6713H214.645C214.492 18.6713 214.368 18.7953 214.368 18.9483V21.2315H210.873V20.8441C210.873 19.9008 211.286 19.6735 212.052 19.6735C212.183 19.6735 212.279 19.6735 212.374 19.6758C212.53 19.6796 212.659 19.5549 212.659 19.3989V18.0989C212.659 17.951 212.542 17.8289 212.395 17.8221C212.182 17.8123 212.023 17.8123 211.783 17.8123C209.702 17.8123 208.683 18.8481 208.683 20.7009V21.2315H207.748C207.595 21.2315 207.471 21.3556 207.471 21.5086V22.7988C207.471 22.9518 207.595 23.0759 207.748 23.0759H208.683V29.8059C208.683 29.9589 208.807 30.0829 208.96 30.0829H210.596C210.749 30.0829 210.873 29.9589 210.873 29.8059V23.0759H214.368V27.8174C214.368 29.6282 215.294 30.1839 217.029 30.1839C217.481 30.1839 217.9 30.1506 218.253 30.0974C218.388 30.0771 218.486 29.9599 218.486 29.8236V28.5367C218.486 28.3745 218.348 28.247 218.186 28.2607Z" fill="white"/>
<path d="M223.683 21.063C221.198 21.063 219.421 23.059 219.421 25.6613C219.421 28.3985 221.198 30.2681 223.767 30.2681C225.43 30.2681 226.811 29.456 227.494 28.0423C227.565 27.8963 227.491 27.721 227.338 27.6652L226.012 27.179C225.876 27.1293 225.724 27.1916 225.666 27.3235C225.34 28.0536 224.637 28.4406 223.775 28.4406C222.546 28.4406 221.678 27.5731 221.518 26.1414H227.389C227.542 26.1414 227.666 26.0173 227.666 25.8643V25.4592C227.666 23.0085 226.277 21.063 223.683 21.063ZM221.611 24.5833C221.906 23.4464 222.672 22.8569 223.666 22.8569C224.879 22.8569 225.46 23.6569 225.477 24.5833H221.611Z" fill="white"/>
<path d="M234.105 21.1916C234.011 21.1852 233.907 21.1809 233.789 21.1809C232.677 21.1809 231.784 21.7116 231.397 22.5116V21.5085C231.397 21.3555 231.273 21.2315 231.12 21.2315H229.484C229.331 21.2315 229.207 21.3555 229.207 21.5085V29.8058C229.207 29.9588 229.331 30.0829 229.484 30.0829H231.12C231.273 30.0829 231.397 29.9588 231.397 29.8058V25.5099C231.397 24.1202 232.357 23.3286 233.612 23.3286C233.781 23.3286 233.92 23.3344 234.06 23.3462C234.222 23.3598 234.361 23.2328 234.361 23.0703V21.4679C234.361 21.3228 234.25 21.2014 234.105 21.1916Z" fill="white"/>
<path d="M240.492 21.063C239.364 21.063 238.522 21.5094 237.983 22.1578V21.5085C237.983 21.3555 237.859 21.2314 237.706 21.2314H236.07C235.917 21.2314 235.793 21.3555 235.793 21.5085V32.8208C235.793 32.9738 235.917 33.0979 236.07 33.0979H237.706C237.859 33.0979 237.983 32.9738 237.983 32.8208V29.1648C238.522 29.8217 239.364 30.2681 240.492 30.2681C242.952 30.2681 244.366 28.1795 244.366 25.6613C244.366 23.1516 242.952 21.063 240.492 21.063ZM240.012 28.3732C238.825 28.3732 237.932 27.4889 237.932 25.9224V25.4171C237.932 23.8254 238.825 22.9579 240.012 22.9579C241.41 22.9579 242.16 24.0612 242.16 25.6613C242.16 27.2699 241.41 28.3732 240.012 28.3732Z" fill="white"/>
<path d="M253.344 28.4293C253.003 28.4141 252.864 28.2396 252.864 27.8426V24.1285C252.864 22.0821 251.55 21.063 249.369 21.063C247.483 21.063 246.207 22.0813 245.699 23.4149C245.637 23.5753 245.733 23.7527 245.901 23.7875L247.422 24.1029C247.556 24.1307 247.691 24.0565 247.738 23.9279C247.983 23.2532 248.455 22.9158 249.285 22.9158C250.312 22.9158 250.725 23.4127 250.725 24.2128V24.3559L248.4 24.8191C246.657 25.156 245.318 25.8972 245.318 27.6236C245.318 29.1985 246.606 30.2344 248.316 30.2344C249.47 30.2344 250.379 29.8723 250.944 29.2491C251.269 29.9395 252.036 30.2411 253.363 30.1115C253.505 30.0976 253.613 29.9777 253.613 29.8354V28.7059C253.613 28.5561 253.494 28.436 253.344 28.4293ZM250.725 26.9499C250.725 27.9858 249.739 28.5332 248.703 28.5332C247.962 28.5332 247.482 28.1626 247.482 27.5142C247.482 26.7646 248.089 26.5035 248.906 26.3351L250.725 25.9561V26.9499Z" fill="white"/>
<path d="M262.115 21.2314H260.482C260.363 21.2314 260.258 21.3071 260.22 21.4195L258.245 27.2447L256.221 21.4176C256.183 21.3061 256.078 21.2314 255.96 21.2314H254.274C254.081 21.2314 253.947 21.4248 254.015 21.6059L257.075 29.746L256.763 30.5123C256.493 31.1861 256.165 31.363 255.517 31.363C255.37 31.363 255.258 31.3576 255.141 31.3485C254.98 31.3358 254.843 31.4632 254.843 31.6246V32.8744C254.843 33.017 254.951 33.1368 255.093 33.1502C255.259 33.1658 255.42 33.1737 255.719 33.1737C257.614 33.1737 258.405 32.2051 258.944 30.7482L262.375 21.6058C262.443 21.4247 262.309 21.2314 262.115 21.2314Z" fill="white"/>
</g>
<path d="M59.6105 24.256C59.6105 26.976 61.1145 28.816 63.2425 28.816C64.7305 28.816 65.8025 27.952 66.2185 26.496L67.6745 26.976C67.0025 28.96 65.4345 30.176 63.2425 30.176C60.2665 30.176 58.0745 27.76 58.0745 24.256C58.0745 20.752 60.2665 18.336 63.2425 18.336C65.4345 18.336 67.0025 19.552 67.6745 21.536L66.2185 22.016C65.8025 20.56 64.7305 19.696 63.2425 19.696C61.1145 19.696 59.6105 21.536 59.6105 24.256ZM69.0694 30V18.512H70.5094V22.768C70.9894 22.08 71.8214 21.472 73.0054 21.472C74.7814 21.472 75.7894 22.704 75.7894 24.48V30H74.3494V24.864C74.3494 23.696 73.8534 22.816 72.6054 22.816C71.5654 22.816 70.5094 23.616 70.5094 25.008V30H69.0694ZM81.2846 30.176C78.9646 30.176 77.3646 28.4 77.3646 25.824C77.3646 23.328 78.9486 21.472 81.2206 21.472C83.5566 21.472 84.7886 23.248 84.7886 25.568V26.048H78.7406C78.8206 27.808 79.8286 28.928 81.2846 28.928C82.4046 28.928 83.2046 28.32 83.4606 27.328L84.7246 27.776C84.2126 29.264 82.9486 30.176 81.2846 30.176ZM81.2046 22.704C79.9886 22.704 79.0766 23.52 78.8206 24.944H83.3326C83.3006 23.76 82.6606 22.704 81.2046 22.704ZM87.2852 25.824C87.2852 27.728 88.3092 28.912 89.7972 28.912C90.9492 28.912 91.6372 28.176 91.8772 27.136L93.1572 27.728C92.7572 29.12 91.5412 30.176 89.7972 30.176C87.4612 30.176 85.8452 28.4 85.8452 25.824C85.8452 23.232 87.4612 21.472 89.7972 21.472C91.5412 21.472 92.7252 22.48 93.1252 23.872L91.8772 24.496C91.6372 23.472 90.9492 22.72 89.7972 22.72C88.3092 22.72 87.2852 23.904 87.2852 25.824ZM96.0137 18.512V25.536L99.7257 21.632H101.518L98.2537 24.928L101.79 30H100.11L97.2297 25.968L96.0137 27.2V30H94.5737V18.512H96.0137ZM109.817 25.824C109.817 28.416 108.217 30.176 105.929 30.176C103.641 30.176 102.041 28.416 102.041 25.824C102.041 23.232 103.641 21.472 105.929 21.472C108.217 21.472 109.817 23.232 109.817 25.824ZM103.497 25.824C103.497 27.728 104.457 28.944 105.929 28.944C107.401 28.944 108.361 27.728 108.361 25.824C108.361 23.904 107.401 22.688 105.929 22.688C104.457 22.688 103.497 23.904 103.497 25.824ZM118.128 21.632V30H116.688V28.848C116.208 29.552 115.392 30.176 114.208 30.176C112.416 30.176 111.408 28.944 111.408 27.168V21.632H112.848V26.864C112.848 28.048 113.36 28.848 114.592 28.848C115.632 28.848 116.688 28.064 116.688 26.672V21.632H118.128ZM120.583 28V22.864H119.287V21.632H120.583V19.184H122.007V21.632H123.911V22.864H122.007V27.776C122.007 28.656 122.439 28.816 123.175 28.816C123.511 28.816 123.751 28.8 124.087 28.72V29.952C123.719 30.032 123.303 30.08 122.823 30.08C121.399 30.08 120.583 29.6 120.583 28ZM132.836 21.632H134.052L135.78 27.872L137.524 21.632H138.964L136.42 30H135.156L133.412 23.792L131.668 30H130.404L127.86 21.632H129.348L131.108 27.856L132.836 21.632ZM140.927 20.24C140.399 20.24 140.031 19.872 140.031 19.328C140.031 18.784 140.399 18.416 140.927 18.416C141.455 18.416 141.823 18.784 141.823 19.328C141.823 19.872 141.455 20.24 140.927 20.24ZM141.647 21.632V30H140.207V21.632H141.647ZM144.115 28V22.864H142.819V21.632H144.115V19.184H145.539V21.632H147.443V22.864H145.539V27.776C145.539 28.656 145.971 28.816 146.707 28.816C147.043 28.816 147.283 28.8 147.619 28.72V29.952C147.251 30.032 146.835 30.08 146.355 30.08C144.931 30.08 144.115 29.6 144.115 28ZM149.169 30V18.512H150.609V22.768C151.089 22.08 151.921 21.472 153.105 21.472C154.881 21.472 155.889 22.704 155.889 24.48V30H154.449V24.864C154.449 23.696 153.953 22.816 152.705 22.816C151.665 22.816 150.609 23.616 150.609 25.008V30H149.169Z" fill="white"/>
<defs>
<clipPath id="clip0_3855_984">
<rect width="97.3944" height="24" fill="white" transform="translate(165 12)"/>
</clipPath>
</defs>
</svg>
