<svg width="320" height="48" viewBox="0 0 320 48" fill="none" xmlns="http://www.w3.org/2000/svg">
<g clip-path="url(#clip0_3855_954)">
<path fill-rule="evenodd" clip-rule="evenodd" d="M171.362 12.0227C168.955 12.0227 167.751 12.0227 166.465 12.4225C165.045 12.9368 163.926 14.0561 163.412 15.4772C163.002 16.7765 163.002 17.9788 163.002 20.3862V27.6499C163.002 30.0702 163.002 31.2623 163.402 32.5588C163.916 33.9791 165.035 35.0983 166.454 35.6126C167.753 36.0245 168.955 36.0245 171.362 36.0245H178.633C181.042 36.0245 182.243 36.0245 183.539 35.6126C184.959 35.0983 186.077 33.9791 186.592 32.5588C187.002 31.2596 187.002 30.0573 187.002 27.6499V20.3963C187.002 17.9862 187.002 16.7839 186.592 15.4874C186.077 14.0671 184.958 12.9479 183.539 12.4336C182.231 12.0217 181.042 12.0217 178.621 12.0217H171.361C171.361 12.0217 171.362 12.0227 171.362 12.0227Z" fill="#00D633"/>
<path d="M175.973 22.8574C178.502 23.3993 179.658 24.447 179.658 26.2172C179.658 28.4363 177.851 30.0744 175.03 30.2478L174.755 31.5604C174.728 31.6887 174.615 31.7806 174.484 31.7806H172.313C172.134 31.7806 172.003 31.6137 172.044 31.4396L172.392 29.9717C170.994 29.5739 169.869 28.8 169.213 27.8447C169.13 27.7245 169.158 27.5601 169.273 27.4706L170.79 26.2908C170.915 26.1936 171.094 26.2221 171.186 26.3507C171.99 27.4694 173.223 28.1319 174.708 28.1319C176.045 28.1319 177.057 27.4816 177.057 26.5423C177.057 25.8198 176.551 25.4947 174.853 25.1334C171.927 24.5193 170.771 23.4355 170.771 21.6653C170.771 19.6114 172.497 18.0599 175.101 17.8584L175.385 16.5027C175.412 16.3744 175.525 16.2825 175.656 16.2825H177.797C177.974 16.2825 178.105 16.4455 178.068 16.6182L177.739 18.1372C178.859 18.4821 179.771 19.0987 180.339 19.8597C180.427 19.9776 180.405 20.1447 180.291 20.238L178.907 21.3728C178.787 21.4714 178.611 21.4499 178.513 21.3289C177.81 20.459 176.703 19.9673 175.503 19.9673C174.167 19.9673 173.336 20.5454 173.336 21.3763C173.336 22.0627 173.986 22.4239 175.973 22.8574Z" fill="white"/>
<path d="M200.864 18.1684C200.824 18.0605 200.721 17.989 200.605 17.989H198.353C198.237 17.989 198.134 18.0605 198.093 18.1685L193.754 29.7083C193.686 29.8894 193.82 30.0828 194.013 30.0828H195.719C195.835 30.0828 195.939 30.0108 195.979 29.9022L196.906 27.4047H202.01L202.944 29.9029C202.985 30.0111 203.088 30.0828 203.204 30.0828H204.953C205.146 30.0828 205.28 29.8893 205.212 29.7081L200.864 18.1684ZM197.647 25.4087L199.441 20.5577L201.26 25.4087H197.647Z" fill="white"/>
<path d="M216.186 28.2607C216.03 28.274 215.881 28.2806 215.669 28.2806C214.962 28.2806 214.524 28.188 214.524 27.4132V23.0759H216.075C216.228 23.0759 216.352 22.9518 216.352 22.7988V21.5086C216.352 21.3556 216.228 21.2315 216.075 21.2315H214.524V18.9483C214.524 18.7953 214.4 18.6713 214.247 18.6713H212.645C212.492 18.6713 212.368 18.7953 212.368 18.9483V21.2315H208.873V20.8441C208.873 19.9008 209.286 19.6735 210.052 19.6735C210.183 19.6735 210.279 19.6735 210.374 19.6758C210.53 19.6796 210.659 19.5549 210.659 19.3989V18.0989C210.659 17.951 210.542 17.8289 210.395 17.8221C210.182 17.8123 210.023 17.8123 209.783 17.8123C207.702 17.8123 206.683 18.8481 206.683 20.7009V21.2315H205.748C205.595 21.2315 205.471 21.3556 205.471 21.5086V22.7988C205.471 22.9518 205.595 23.0759 205.748 23.0759H206.683V29.8059C206.683 29.9589 206.807 30.0829 206.96 30.0829H208.596C208.749 30.0829 208.873 29.9589 208.873 29.8059V23.0759H212.368V27.8174C212.368 29.6282 213.294 30.1839 215.029 30.1839C215.481 30.1839 215.9 30.1506 216.253 30.0974C216.388 30.0771 216.486 29.9599 216.486 29.8236V28.5367C216.486 28.3745 216.348 28.247 216.186 28.2607Z" fill="white"/>
<path d="M221.683 21.063C219.198 21.063 217.421 23.059 217.421 25.6613C217.421 28.3985 219.198 30.2681 221.767 30.2681C223.43 30.2681 224.811 29.456 225.494 28.0423C225.565 27.8963 225.491 27.721 225.338 27.6652L224.012 27.179C223.876 27.1293 223.724 27.1916 223.666 27.3235C223.34 28.0536 222.637 28.4406 221.775 28.4406C220.546 28.4406 219.678 27.5731 219.518 26.1414H225.389C225.542 26.1414 225.666 26.0173 225.666 25.8643V25.4592C225.666 23.0085 224.277 21.063 221.683 21.063ZM219.611 24.5833C219.906 23.4464 220.672 22.8569 221.666 22.8569C222.879 22.8569 223.46 23.6569 223.477 24.5833H219.611Z" fill="white"/>
<path d="M232.105 21.1916C232.011 21.1852 231.907 21.1809 231.789 21.1809C230.677 21.1809 229.784 21.7116 229.397 22.5116V21.5085C229.397 21.3555 229.273 21.2315 229.12 21.2315H227.484C227.331 21.2315 227.207 21.3555 227.207 21.5085V29.8058C227.207 29.9588 227.331 30.0829 227.484 30.0829H229.12C229.273 30.0829 229.397 29.9588 229.397 29.8058V25.5099C229.397 24.1202 230.357 23.3286 231.612 23.3286C231.781 23.3286 231.92 23.3344 232.06 23.3462C232.222 23.3598 232.361 23.2328 232.361 23.0703V21.4679C232.361 21.3228 232.25 21.2014 232.105 21.1916Z" fill="white"/>
<path d="M238.492 21.063C237.364 21.063 236.522 21.5094 235.983 22.1578V21.5085C235.983 21.3555 235.859 21.2314 235.706 21.2314H234.07C233.917 21.2314 233.793 21.3555 233.793 21.5085V32.8208C233.793 32.9738 233.917 33.0979 234.07 33.0979H235.706C235.859 33.0979 235.983 32.9738 235.983 32.8208V29.1648C236.522 29.8217 237.364 30.2681 238.492 30.2681C240.952 30.2681 242.366 28.1795 242.366 25.6613C242.366 23.1516 240.952 21.063 238.492 21.063ZM238.012 28.3732C236.825 28.3732 235.932 27.4889 235.932 25.9224V25.4171C235.932 23.8254 236.825 22.9579 238.012 22.9579C239.41 22.9579 240.16 24.0612 240.16 25.6613C240.16 27.2699 239.41 28.3732 238.012 28.3732Z" fill="white"/>
<path d="M251.344 28.4293C251.003 28.4141 250.864 28.2396 250.864 27.8426V24.1285C250.864 22.0821 249.55 21.063 247.369 21.063C245.483 21.063 244.207 22.0813 243.699 23.4149C243.637 23.5753 243.733 23.7527 243.901 23.7875L245.422 24.1029C245.556 24.1307 245.691 24.0565 245.738 23.9279C245.983 23.2532 246.455 22.9158 247.285 22.9158C248.312 22.9158 248.725 23.4127 248.725 24.2128V24.3559L246.4 24.8191C244.657 25.156 243.318 25.8972 243.318 27.6236C243.318 29.1985 244.606 30.2344 246.316 30.2344C247.47 30.2344 248.379 29.8723 248.944 29.2491C249.269 29.9395 250.036 30.2411 251.363 30.1115C251.505 30.0976 251.613 29.9777 251.613 29.8354V28.7059C251.613 28.5561 251.494 28.436 251.344 28.4293ZM248.725 26.9499C248.725 27.9858 247.739 28.5332 246.703 28.5332C245.962 28.5332 245.482 28.1626 245.482 27.5142C245.482 26.7646 246.089 26.5035 246.906 26.3351L248.725 25.9561V26.9499Z" fill="white"/>
<path d="M260.115 21.2314H258.482C258.363 21.2314 258.258 21.3071 258.22 21.4195L256.245 27.2447L254.221 21.4176C254.183 21.3061 254.078 21.2314 253.96 21.2314H252.274C252.081 21.2314 251.947 21.4248 252.015 21.6059L255.075 29.746L254.763 30.5123C254.493 31.1861 254.165 31.363 253.517 31.363C253.37 31.363 253.258 31.3576 253.141 31.3485C252.98 31.3358 252.843 31.4632 252.843 31.6246V32.8744C252.843 33.017 252.951 33.1368 253.093 33.1502C253.259 33.1658 253.42 33.1737 253.719 33.1737C255.614 33.1737 256.405 32.2051 256.944 30.7482L260.375 21.6058C260.443 21.4247 260.309 21.2314 260.115 21.2314Z" fill="white"/>
</g>
<path d="M61.2511 24.256C61.2511 26.976 62.7551 28.816 64.8831 28.816C66.3711 28.816 67.4431 27.952 67.8591 26.496L69.3151 26.976C68.6431 28.96 67.0751 30.176 64.8831 30.176C61.9071 30.176 59.7151 27.76 59.7151 24.256C59.7151 20.752 61.9071 18.336 64.8831 18.336C67.0751 18.336 68.6431 19.552 69.3151 21.536L67.8591 22.016C67.4431 20.56 66.3711 19.696 64.8831 19.696C62.7551 19.696 61.2511 21.536 61.2511 24.256ZM77.91 25.824C77.91 28.416 76.31 30.176 74.022 30.176C71.734 30.176 70.134 28.416 70.134 25.824C70.134 23.232 71.734 21.472 74.022 21.472C76.31 21.472 77.91 23.232 77.91 25.824ZM71.59 25.824C71.59 27.728 72.55 28.944 74.022 28.944C75.494 28.944 76.454 27.728 76.454 25.824C76.454 23.904 75.494 22.688 74.022 22.688C72.55 22.688 71.59 23.904 71.59 25.824ZM79.5812 30V21.632H81.0212V22.768C81.5012 22.08 82.3332 21.472 83.5172 21.472C85.2932 21.472 86.3012 22.704 86.3012 24.48V30H84.8612V24.864C84.8612 23.696 84.3652 22.816 83.1172 22.816C82.0772 22.816 81.0212 23.616 81.0212 25.008V30H79.5812ZM88.6765 28V22.864H87.3805V21.632H88.6765V19.184H90.1005V21.632H92.0045V22.864H90.1005V27.776C90.1005 28.656 90.5325 28.816 91.2685 28.816C91.6045 28.816 91.8445 28.8 92.1805 28.72V29.952C91.8125 30.032 91.3965 30.08 90.9165 30.08C89.4925 30.08 88.6765 29.6 88.6765 28ZM94.45 20.24C93.922 20.24 93.554 19.872 93.554 19.328C93.554 18.784 93.922 18.416 94.45 18.416C94.978 18.416 95.346 18.784 95.346 19.328C95.346 19.872 94.978 20.24 94.45 20.24ZM95.17 21.632V30H93.73V21.632H95.17ZM97.4137 30V21.632H98.8537V22.768C99.3337 22.08 100.166 21.472 101.35 21.472C103.126 21.472 104.134 22.704 104.134 24.48V30H102.694V24.864C102.694 23.696 102.198 22.816 100.95 22.816C99.9097 22.816 98.8537 23.616 98.8537 25.008V30H97.4137ZM112.925 21.632V30H111.485V28.848C111.005 29.552 110.189 30.176 109.005 30.176C107.213 30.176 106.205 28.944 106.205 27.168V21.632H107.645V26.864C107.645 28.048 108.157 28.848 109.389 28.848C110.429 28.848 111.485 28.064 111.485 26.672V21.632H112.925ZM118.5 30.176C116.18 30.176 114.58 28.4 114.58 25.824C114.58 23.328 116.164 21.472 118.436 21.472C120.772 21.472 122.004 23.248 122.004 25.568V26.048H115.956C116.036 27.808 117.044 28.928 118.5 28.928C119.62 28.928 120.42 28.32 120.676 27.328L121.94 27.776C121.428 29.264 120.164 30.176 118.5 30.176ZM118.42 22.704C117.204 22.704 116.292 23.52 116.036 24.944H120.548C120.516 23.76 119.876 22.704 118.42 22.704ZM130.836 21.632H132.052L133.78 27.872L135.524 21.632H136.964L134.42 30H133.156L131.412 23.792L129.668 30H128.404L125.86 21.632H127.348L129.108 27.856L130.836 21.632ZM138.927 20.24C138.399 20.24 138.031 19.872 138.031 19.328C138.031 18.784 138.399 18.416 138.927 18.416C139.455 18.416 139.823 18.784 139.823 19.328C139.823 19.872 139.455 20.24 138.927 20.24ZM139.647 21.632V30H138.207V21.632H139.647ZM142.115 28V22.864H140.819V21.632H142.115V19.184H143.539V21.632H145.443V22.864H143.539V27.776C143.539 28.656 143.971 28.816 144.707 28.816C145.043 28.816 145.283 28.8 145.619 28.72V29.952C145.251 30.032 144.835 30.08 144.355 30.08C142.931 30.08 142.115 29.6 142.115 28ZM147.169 30V18.512H148.609V22.768C149.089 22.08 149.921 21.472 151.105 21.472C152.881 21.472 153.889 22.704 153.889 24.48V30H152.449V24.864C152.449 23.696 151.953 22.816 150.705 22.816C149.665 22.816 148.609 23.616 148.609 25.008V30H147.169Z" fill="white"/>
<defs>
<clipPath id="clip0_3855_954">
<rect width="97.3944" height="24" fill="white" transform="translate(163 12)"/>
</clipPath>
</defs>
</svg>
