<svg width="98" height="24" viewBox="0 0 98 24" fill="none" xmlns="http://www.w3.org/2000/svg">
<g clip-path="url(#clip0_12_752)">
<path fill-rule="evenodd" clip-rule="evenodd" d="M8.3616 0.0226519C5.95513 0.0226519 4.75098 0.022652 3.46464 0.422498C2.04532 0.93685 0.926121 2.05605 0.411774 3.47721C0.00177002 4.77648 0.00177002 5.97879 0.00177002 8.38618V15.6499C0.00177002 18.0702 0.00177002 19.2623 0.401616 20.5588C0.915968 21.9791 2.03516 23.0983 3.45448 23.6126C4.75282 24.0245 5.95513 24.0245 8.3616 24.0245H15.6327C18.0419 24.0245 19.2433 24.0245 20.5389 23.6126C21.9591 23.0983 23.0774 21.9791 23.5918 20.5588C24.0018 19.2596 24.0018 18.0573 24.0018 15.6499V8.39633C24.0018 5.98618 24.0018 4.78387 23.5918 3.48737C23.0774 2.06713 21.9582 0.947931 20.5389 0.433578C19.2313 0.0217285 18.0419 0.0217285 15.6207 0.0217285H8.36067C8.36067 0.0217285 8.3616 0.0226519 8.3616 0.0226519Z" fill="#00D633"/>
<path d="M12.9728 10.8574C15.5017 11.3993 16.6577 12.4469 16.6577 14.2171C16.6577 16.4363 14.8507 18.0744 12.0298 18.2478L11.7546 19.5604C11.7277 19.6887 11.6145 19.7806 11.4835 19.7806H9.31328C9.13443 19.7806 9.00244 19.6136 9.04374 19.4396L9.39206 17.9716C7.9938 17.5738 6.86865 16.7999 6.21273 15.8447C6.13015 15.7244 6.15755 15.5601 6.27271 15.4705L7.78954 14.2907C7.91455 14.1935 8.09375 14.222 8.18616 14.3506C8.98993 15.4693 10.223 16.1318 11.7084 16.1318C13.0451 16.1318 14.0566 15.4815 14.0566 14.5423C14.0566 13.8197 13.5509 13.4946 11.8529 13.1333C8.9267 12.5192 7.77066 11.4354 7.77066 9.66522C7.77066 7.61134 9.49679 6.05982 12.1005 5.85831L12.3848 4.50259C12.4117 4.37429 12.5248 4.28241 12.6559 4.28241H14.7969C14.9736 4.28241 15.1051 4.44548 15.0677 4.6181L14.7386 6.13713C15.859 6.48201 16.7713 7.09867 17.3392 7.85962C17.4272 7.97757 17.4046 8.14459 17.2908 8.23791L15.9069 9.37271C15.7866 9.47133 15.611 9.44979 15.5132 9.32886C14.8099 8.45893 13.7026 7.96729 12.5032 7.96729C11.1665 7.96729 10.3356 8.54531 10.3356 9.37621C10.3356 10.0626 10.9859 10.4239 12.9728 10.8574Z" fill="white"/>
<path d="M37.8644 6.16843C37.8237 6.06052 37.7204 5.98907 37.6051 5.98907H35.3526C35.2372 5.98907 35.1339 6.06059 35.0933 6.16859L30.7538 17.7083C30.6856 17.8895 30.8195 18.0829 31.0131 18.0829H32.7194C32.8353 18.0829 32.9389 18.0108 32.9792 17.9022L33.9059 15.4047H39.0095L39.9444 17.9029C39.9849 18.0112 40.0883 18.0829 40.2038 18.0829H41.9526C42.1462 18.0829 42.2801 17.8894 42.2119 17.7082L37.8644 6.16843ZM34.647 13.4088L36.4409 8.55773L38.26 13.4088H34.647Z" fill="white"/>
<path d="M53.186 16.2607C53.0296 16.274 52.8811 16.2806 52.6694 16.2806C51.962 16.2806 51.524 16.188 51.524 15.4132V11.0759H53.0746C53.2276 11.0759 53.3516 10.9518 53.3516 10.7988V9.50855C53.3516 9.35555 53.2276 9.23152 53.0746 9.23152H51.524V6.94828C51.524 6.79528 51.4 6.67126 51.247 6.67126H49.6451C49.4921 6.67126 49.368 6.79528 49.368 6.94828V9.23152H45.8732V8.84412C45.8732 7.90084 46.2858 7.6735 47.0522 7.6735C47.1827 7.6735 47.2795 7.6735 47.3739 7.67581C47.5299 7.67963 47.6586 7.55495 47.6586 7.39893V6.09887C47.6586 5.95104 47.5423 5.82894 47.3946 5.82211C47.1818 5.81226 47.0227 5.81226 46.7827 5.81226C44.7025 5.81226 43.6834 6.84814 43.6834 8.70091V9.23152H42.7477C42.5947 9.23152 42.4707 9.35555 42.4707 9.50855V10.7988C42.4707 10.9518 42.5947 11.0759 42.7477 11.0759H43.6834V17.8059C43.6834 17.9589 43.8075 18.0829 43.9605 18.0829H45.5961C45.7491 18.0829 45.8732 17.9589 45.8732 17.8059V11.0759H49.368V15.8174C49.368 17.6282 50.2944 18.1839 52.0294 18.1839C52.4812 18.1839 52.8996 18.1506 53.253 18.0974C53.3878 18.0771 53.4864 17.9599 53.4864 17.8236V16.5367C53.4864 16.3745 53.3476 16.247 53.186 16.2607Z" fill="white"/>
<path d="M58.6825 9.06305C56.198 9.06305 54.421 11.0591 54.421 13.6614C54.421 16.3985 56.1981 18.2682 58.7667 18.2682C60.4301 18.2682 61.8104 17.4561 62.4942 16.0424C62.5648 15.8964 62.4904 15.7211 62.3382 15.6652L61.0118 15.1791C60.8763 15.1294 60.7241 15.1917 60.6654 15.3235C60.3403 16.0536 59.6372 16.4406 58.7752 16.4406C57.5456 16.4406 56.6781 15.5732 56.5181 14.1414H62.389C62.542 14.1414 62.666 14.0174 62.666 13.8644V13.4593C62.666 11.0085 61.2764 9.06305 58.6825 9.06305ZM56.6107 12.5834C56.9055 11.4464 57.6719 10.8569 58.6657 10.8569C59.8784 10.8569 60.4595 11.657 60.4764 12.5834H56.6107Z" fill="white"/>
<path d="M69.1049 9.19159C69.0108 9.18519 68.9071 9.18091 68.7886 9.18091C67.6769 9.18091 66.7842 9.71157 66.3968 10.5116V9.50853C66.3968 9.35553 66.2727 9.2315 66.1197 9.2315H64.4841C64.3311 9.2315 64.2071 9.35553 64.2071 9.50853V17.8058C64.2071 17.9588 64.3311 18.0829 64.4841 18.0829H66.1197C66.2727 18.0829 66.3968 17.9588 66.3968 17.8058V13.5099C66.3968 12.1202 67.3569 11.3286 68.6117 11.3286C68.7808 11.3286 68.9205 11.3344 69.0603 11.3462C69.2222 11.3598 69.3613 11.2328 69.3613 11.0703V9.46786C69.3613 9.32284 69.2496 9.20141 69.1049 9.19159Z" fill="white"/>
<path d="M75.4923 9.06305C74.3638 9.06305 73.5215 9.50943 72.9825 10.1579V9.50853C72.9825 9.35553 72.8585 9.2315 72.7055 9.2315H71.0698C70.9168 9.2315 70.7928 9.35553 70.7928 9.50853V20.8209C70.7928 20.9739 70.9168 21.0979 71.0698 21.0979H72.7055C72.8585 21.0979 72.9825 20.9739 72.9825 20.8209V17.1649C73.5215 17.8218 74.3638 18.2682 75.4923 18.2682C77.9515 18.2682 79.3663 16.1795 79.3663 13.6614C79.3663 11.1517 77.9515 9.06305 75.4923 9.06305ZM75.0123 16.3733C73.8247 16.3733 72.932 15.4889 72.932 13.9225V13.4172C72.932 11.8255 73.8247 10.958 75.0123 10.958C76.4102 10.958 77.1598 12.0612 77.1598 13.6614C77.1598 15.27 76.4102 16.3733 75.0123 16.3733Z" fill="white"/>
<path d="M88.3443 16.4294C88.0029 16.4141 87.8639 16.2396 87.8639 15.8427V12.1286C87.8639 10.0821 86.55 9.06305 84.3688 9.06305C82.4826 9.06305 81.2073 10.0814 80.6985 11.4149C80.6373 11.5753 80.7326 11.7527 80.9007 11.7876L82.4223 12.103C82.5563 12.1308 82.6912 12.0566 82.7379 11.928C82.9826 11.2532 83.4545 10.9159 84.2846 10.9159C85.312 10.9159 85.7246 11.4128 85.7246 12.2129V12.356L83.4003 12.8192C81.6569 13.1561 80.3179 13.8972 80.3179 15.6237C80.3179 17.1985 81.6064 18.2345 83.316 18.2345C84.4699 18.2345 85.3793 17.8723 85.9437 17.2491C86.2691 17.9396 87.0357 18.2411 88.3634 18.1115C88.5051 18.0977 88.6134 17.9777 88.6134 17.8354V16.7059C88.6134 16.5562 88.4939 16.4361 88.3443 16.4294ZM85.7246 14.9499C85.7246 15.9858 84.7393 16.5332 83.7035 16.5332C82.9623 16.5332 82.4824 16.1627 82.4824 15.5142C82.4824 14.7647 83.0886 14.5036 83.9056 14.3351L85.7246 13.9562V14.9499Z" fill="white"/>
<path d="M97.1153 9.23151H95.482C95.3632 9.23151 95.2577 9.30717 95.2196 9.41961L93.2452 15.2447L91.2213 9.41764C91.1826 9.30621 91.0776 9.23151 90.9596 9.23151H89.2744C89.0809 9.23151 88.947 9.42487 89.0151 9.606L92.0746 17.746L91.7629 18.5124C91.4935 19.1861 91.1651 19.363 90.5166 19.363C90.3699 19.363 90.2577 19.3577 90.1413 19.3485C89.9804 19.3359 89.8429 19.4633 89.8429 19.6247V20.8745C89.8429 21.017 89.9511 21.1368 90.093 21.1502C90.2589 21.1659 90.4204 21.1737 90.7187 21.1737C92.6136 21.1737 93.4053 20.2052 93.9442 18.7483L97.3747 9.60586C97.4427 9.42474 97.3088 9.23151 97.1153 9.23151Z" fill="white"/>
</g>
<defs>
<clipPath id="clip0_12_752">
<rect width="97.3944" height="24" fill="white"/>
</clipPath>
</defs>
</svg>
