<svg width="320" height="48" viewBox="0 0 320 48" fill="none" xmlns="http://www.w3.org/2000/svg">
<path d="M79.1242 29.5V18.012H83.3642C85.7962 18.012 87.0922 19.084 87.0922 21.004C87.0922 22.476 86.1962 23.212 85.3162 23.516C86.6122 23.868 87.4762 24.876 87.4762 26.332C87.4762 28.332 86.0202 29.5 83.7002 29.5H79.1242ZM80.6122 22.94H83.2362C84.7722 22.94 85.6202 22.348 85.6202 21.132C85.6202 19.9 84.7722 19.308 83.2362 19.308H80.6122V22.94ZM80.6122 24.252V28.204H83.6362C85.1722 28.204 86.0042 27.404 86.0042 26.22C86.0042 25.052 85.1722 24.252 83.6362 24.252H80.6122ZM95.759 21.132V29.5H94.319V28.348C93.839 29.052 93.023 29.676 91.839 29.676C90.047 29.676 89.039 28.444 89.039 26.668V21.132H90.479V26.364C90.479 27.548 90.991 28.348 92.223 28.348C93.263 28.348 94.319 27.564 94.319 26.172V21.132H95.759ZM101.094 30.412C100.614 31.676 99.9582 32.476 98.5022 32.476C98.1502 32.476 97.9742 32.46 97.7182 32.412V31.164C97.9902 31.228 98.1662 31.244 98.4062 31.244C99.0302 31.244 99.3662 31.02 99.7022 30.188L100.102 29.196L96.9982 21.132H98.5182L100.87 27.532L103.19 21.132H104.694L101.094 30.412ZM113.139 21.132H114.355L116.083 27.372L117.827 21.132H119.267L116.723 29.5H115.459L113.715 23.292L111.971 29.5H110.707L108.163 21.132H109.651L111.411 27.356L113.139 21.132ZM121.23 19.74C120.702 19.74 120.334 19.372 120.334 18.828C120.334 18.284 120.702 17.916 121.23 17.916C121.758 17.916 122.126 18.284 122.126 18.828C122.126 19.372 121.758 19.74 121.23 19.74ZM121.95 21.132V29.5H120.51V21.132H121.95ZM124.418 27.5V22.364H123.122V21.132H124.418V18.684H125.842V21.132H127.746V22.364H125.842V27.276C125.842 28.156 126.274 28.316 127.01 28.316C127.346 28.316 127.586 28.3 127.922 28.22V29.452C127.554 29.532 127.138 29.58 126.658 29.58C125.234 29.58 124.418 29.1 124.418 27.5ZM129.471 29.5V18.012H130.911V22.268C131.391 21.58 132.223 20.972 133.407 20.972C135.183 20.972 136.191 22.204 136.191 23.98V29.5H134.751V24.364C134.751 23.196 134.255 22.316 133.007 22.316C131.967 22.316 130.911 23.116 130.911 24.508V29.5H129.471Z" fill="black"/>
<g clip-path="url(#clip0_22_256)">
<g clip-path="url(#clip1_22_256)">
<path fill-rule="evenodd" clip-rule="evenodd" d="M168.894 15.4874C168.38 14.0671 167.261 12.9479 165.842 12.4336C164.534 12.0217 163.345 12.0217 160.923 12.0217H153.663L153.664 12.0227C151.258 12.0227 150.054 12.0227 148.767 12.4225C147.348 12.9369 146.229 14.0561 145.714 15.4772C145.304 16.7765 145.304 17.9788 145.304 20.3862V27.6499C145.304 30.0702 145.304 31.2623 145.704 32.5588C146.219 33.9791 147.338 35.0983 148.757 35.6126C150.055 36.0245 151.258 36.0245 153.664 36.0245H160.935C163.345 36.0245 164.546 36.0245 165.842 35.6126C167.262 35.0983 168.38 33.9791 168.894 32.5588C169.304 31.2596 169.304 30.0573 169.304 27.6499V20.3963C169.304 17.9862 169.304 16.7839 168.894 15.4874ZM162.593 20.2379L161.209 21.3727C161.089 21.4713 160.914 21.4498 160.816 21.3288C160.113 20.4589 159.005 19.9673 157.806 19.9673C156.469 19.9673 155.638 20.5453 155.638 21.3762C155.638 22.0626 156.289 22.4239 158.275 22.8574C160.804 23.3993 161.96 24.4469 161.96 26.2171C161.96 28.4363 160.153 30.0744 157.332 30.2477L157.057 31.5604C157.03 31.6887 156.917 31.7805 156.786 31.7805H154.616C154.437 31.7805 154.305 31.6136 154.346 31.4396L154.695 29.9716C153.296 29.5738 152.171 28.7999 151.515 27.8447C151.433 27.7244 151.46 27.5601 151.575 27.4705L153.092 26.2907C153.217 26.1935 153.396 26.222 153.489 26.3506C154.293 27.4693 155.526 28.1318 157.011 28.1318C158.348 28.1318 159.359 27.4815 159.359 26.5422C159.359 25.8197 158.853 25.4946 157.156 25.1333C154.229 24.5192 153.073 23.4354 153.073 21.6652C153.073 19.6113 154.799 18.0598 157.403 17.8583L157.687 16.5026C157.714 16.3743 157.827 16.2824 157.959 16.2824H160.1C160.276 16.2824 160.408 16.4455 160.37 16.6181L160.041 18.1371C161.162 18.482 162.074 19.0987 162.642 19.8596C162.73 19.9776 162.707 20.1446 162.593 20.2379Z" fill="black"/>
<path d="M183.167 18.1685C183.127 18.0606 183.023 17.9891 182.908 17.9891H180.655C180.54 17.9891 180.437 18.0607 180.396 18.1687L176.057 29.7084C175.988 29.8895 176.122 30.0829 176.316 30.0829H178.022C178.138 30.0829 178.242 30.0109 178.282 29.9023L179.209 27.4048H184.312L185.247 29.903C185.288 30.0112 185.391 30.0829 185.507 30.0829H187.255C187.449 30.0829 187.583 29.8894 187.515 29.7082L183.167 18.1685ZM179.95 25.4088L181.744 20.5578L183.563 25.4088H179.95Z" fill="black"/>
<path d="M198.489 28.2607C198.332 28.274 198.184 28.2806 197.972 28.2806C197.265 28.2806 196.827 28.188 196.827 27.4132V23.0759H198.377C198.53 23.0759 198.654 22.9518 198.654 22.7988V21.5086C198.654 21.3556 198.53 21.2315 198.377 21.2315H196.827V18.9483C196.827 18.7953 196.703 18.6713 196.55 18.6713H194.948C194.795 18.6713 194.671 18.7953 194.671 18.9483V21.2315H191.176V20.8441C191.176 19.9008 191.589 19.6735 192.355 19.6735C192.485 19.6735 192.582 19.6735 192.677 19.6758C192.833 19.6796 192.961 19.5549 192.961 19.3989V18.0989C192.961 17.951 192.845 17.8289 192.697 17.8221C192.485 17.8123 192.325 17.8123 192.085 17.8123C190.005 17.8123 188.986 18.8481 188.986 20.7009V21.2315H188.05C187.897 21.2315 187.773 21.3556 187.773 21.5086V22.7988C187.773 22.9518 187.897 23.0759 188.05 23.0759H188.986V29.8059C188.986 29.9589 189.11 30.0829 189.263 30.0829H190.899C191.052 30.0829 191.176 29.9589 191.176 29.8059V23.0759H194.671V27.8174C194.671 29.6282 195.597 30.1839 197.332 30.1839C197.784 30.1839 198.202 30.1506 198.556 30.0974C198.691 30.0771 198.789 29.9599 198.789 29.8236V28.5367C198.789 28.3745 198.65 28.247 198.489 28.2607Z" fill="black"/>
<path d="M203.985 21.0631C201.501 21.0631 199.724 23.0591 199.724 25.6614C199.724 28.3986 201.501 30.2682 204.07 30.2682C205.733 30.2682 207.113 29.4562 207.797 28.0424C207.868 27.8964 207.793 27.7211 207.641 27.6653L206.315 27.1791C206.179 27.1294 206.027 27.1917 205.968 27.3236C205.643 28.0537 204.94 28.4407 204.078 28.4407C202.848 28.4407 201.981 27.5732 201.821 26.1415H207.692C207.845 26.1415 207.969 26.0175 207.969 25.8645V25.4593C207.969 23.0086 206.579 21.0631 203.985 21.0631ZM201.914 24.5834C202.208 23.4465 202.975 22.857 203.969 22.857C205.181 22.857 205.762 23.6571 205.779 24.5834H201.914Z" fill="black"/>
<path d="M214.408 21.1916C214.313 21.1852 214.21 21.1809 214.091 21.1809C212.98 21.1809 212.087 21.7116 211.699 22.5116V21.5085C211.699 21.3555 211.575 21.2315 211.422 21.2315H209.787C209.634 21.2315 209.51 21.3555 209.51 21.5085V29.8058C209.51 29.9588 209.634 30.0829 209.787 30.0829H211.422C211.575 30.0829 211.699 29.9588 211.699 29.8058V25.5099C211.699 24.1202 212.66 23.3286 213.914 23.3286C214.083 23.3286 214.223 23.3344 214.363 23.3462C214.525 23.3598 214.664 23.2328 214.664 23.0703V21.4679C214.664 21.3228 214.552 21.2014 214.408 21.1916Z" fill="black"/>
<path d="M220.795 21.0631C219.667 21.0631 218.824 21.5095 218.285 22.1579V21.5086C218.285 21.3556 218.161 21.2316 218.008 21.2316H216.373C216.22 21.2316 216.096 21.3556 216.096 21.5086V32.821C216.096 32.974 216.22 33.098 216.373 33.098H218.008C218.161 33.098 218.285 32.974 218.285 32.821V29.165C218.824 29.8218 219.667 30.2682 220.795 30.2682C223.254 30.2682 224.669 28.1796 224.669 25.6614C224.669 23.1517 223.254 21.0631 220.795 21.0631ZM220.315 28.3733C219.128 28.3733 218.235 27.489 218.235 25.9225V25.4172C218.235 23.8255 219.128 22.958 220.315 22.958C221.713 22.958 222.463 24.0613 222.463 25.6614C222.463 27.27 221.713 28.3733 220.315 28.3733Z" fill="black"/>
<path d="M233.647 28.4294C233.306 28.4142 233.167 28.2397 233.167 27.8427V24.1287C233.167 22.0822 231.853 21.0631 229.672 21.0631C227.785 21.0631 226.51 22.0814 226.001 23.415C225.94 23.5754 226.035 23.7528 226.203 23.7876L227.725 24.1031C227.859 24.1308 227.994 24.0566 228.041 23.928C228.285 23.2533 228.757 22.9159 229.587 22.9159C230.615 22.9159 231.027 23.4128 231.027 24.2129V24.356L228.703 24.8192C226.96 25.1562 225.621 25.8973 225.621 27.6238C225.621 29.1986 226.909 30.2345 228.619 30.2345C229.773 30.2345 230.682 29.8724 231.246 29.2492C231.572 29.9397 232.338 30.2412 233.666 30.1116C233.808 30.0978 233.916 29.9778 233.916 29.8355V28.706C233.916 28.5563 233.797 28.4361 233.647 28.4294ZM231.027 26.95C231.027 27.9859 230.042 28.5333 229.006 28.5333C228.265 28.5333 227.785 28.1628 227.785 27.5143C227.785 26.7647 228.391 26.5036 229.208 26.3352L231.027 25.9562V26.95Z" fill="black"/>
<path d="M242.418 21.2316H240.785C240.666 21.2316 240.56 21.3072 240.522 21.4197L238.548 27.2448L236.524 21.4177C236.485 21.3063 236.38 21.2316 236.262 21.2316H234.577C234.384 21.2316 234.25 21.4249 234.318 21.6061L237.377 29.7461L237.066 30.5124C236.796 31.1862 236.468 31.3631 235.819 31.3631C235.673 31.3631 235.56 31.3578 235.444 31.3486C235.283 31.336 235.146 31.4633 235.146 31.6247V32.8745C235.146 33.0171 235.254 33.1369 235.396 33.1503C235.562 33.166 235.723 33.1738 236.021 33.1738C237.916 33.1738 238.708 32.2053 239.247 30.7483L242.677 21.6059C242.745 21.4248 242.611 21.2316 242.418 21.2316Z" fill="black"/>
</g>
</g>
<defs>
<clipPath id="clip0_22_256">
<rect width="97.3944" height="24" fill="white" transform="translate(145.303 12)"/>
</clipPath>
<clipPath id="clip1_22_256">
<rect width="97.3944" height="24" fill="white" transform="translate(145.303 12)"/>
</clipPath>
</defs>
</svg>
